<svg id="svg" version="1.1" xmlns="http://www.w3.org/2000/svg" xmlns:xlink="http://www.w3.org/1999/xlink" width="400" height="484.91620111731845" viewBox="0, 0, 400,484.91620111731845"><g id="svgg"><path id="path0" d="M0.000 242.400 L 0.000 484.800 24.267 484.800 C 37.613 484.800,48.413 484.679,48.265 484.532 C 48.117 484.384,46.602 484.040,44.898 483.767 C 23.978 480.418,7.566 464.664,3.260 443.800 C 2.370 439.487,2.233 204.758,3.117 198.600 C 3.982 192.569,6.181 182.482,7.215 179.800 C 7.384 179.360,8.087 177.200,8.776 175.000 C 9.984 171.146,10.706 169.156,11.827 166.600 C 12.116 165.940,12.891 164.050,13.549 162.400 C 16.819 154.199,24.203 141.108,29.681 133.800 C 32.173 130.475,36.387 125.933,45.366 116.893 C 51.325 110.893,56.264 105.795,56.343 105.563 C 56.500 105.100,43.264 91.600,42.654 91.600 C 42.447 91.600,41.284 92.070,40.070 92.644 C 32.593 96.181,29.588 94.684,15.357 80.330 C 2.910 67.775,2.400 67.032,2.400 61.478 C 2.400 55.688,1.625 56.621,29.916 28.359 C 55.001 3.302,56.894 1.565,59.700 1.043 C 64.343 0.179,59.358 0.000,30.600 0.000 L 0.000 0.000 0.000 242.400 M65.600 0.355 C 65.600 0.551,66.267 0.836,67.081 0.989 C 70.077 1.551,71.916 3.034,81.917 12.959 C 96.253 27.184,97.631 29.722,94.974 37.000 C 94.412 38.540,93.865 40.070,93.757 40.400 C 93.537 41.079,106.879 54.581,107.536 54.343 C 107.753 54.264,113.122 49.069,119.466 42.799 C 130.992 31.405,134.647 28.295,142.673 23.052 C 149.100 18.853,159.383 13.549,166.800 10.606 C 167.790 10.213,169.140 9.664,169.800 9.385 C 170.460 9.107,171.900 8.588,173.000 8.231 C 174.100 7.874,175.360 7.433,175.800 7.251 C 177.138 6.697,179.333 5.948,180.600 5.612 C 181.260 5.437,183.240 4.899,185.000 4.417 C 191.939 2.516,200.930 0.925,205.300 0.825 C 205.905 0.811,206.400 0.620,206.400 0.400 C 206.400 0.135,182.667 0.000,136.000 0.000 C 95.211 0.000,65.600 0.150,65.600 0.355 M353.200 0.368 C 353.200 0.571,354.415 0.858,355.900 1.007 C 357.385 1.156,359.371 1.530,360.314 1.839 C 361.257 2.147,362.251 2.400,362.523 2.400 C 363.594 2.400,373.370 6.502,374.000 7.216 C 374.110 7.340,374.920 7.873,375.800 8.400 C 376.680 8.927,377.490 9.466,377.600 9.598 C 377.710 9.729,378.880 10.660,380.200 11.666 C 389.114 18.457,395.396 28.927,398.283 41.800 C 399.416 46.857,399.398 437.453,398.264 443.000 C 395.896 454.581,390.044 464.868,381.871 471.819 C 380.590 472.909,379.150 474.132,378.671 474.538 C 378.192 474.944,376.990 475.746,376.000 476.319 C 375.010 476.892,374.110 477.462,374.000 477.586 C 373.664 477.962,367.065 481.092,366.000 481.380 C 365.450 481.529,364.640 481.804,364.200 481.991 C 362.762 482.603,359.857 483.268,356.800 483.684 C 350.114 484.594,353.762 484.800,376.520 484.800 L 400.000 484.800 400.000 242.400 L 400.000 0.000 376.600 0.000 C 362.616 0.000,353.200 0.148,353.200 0.368 M195.200 40.385 C 190.350 41.024,185.794 44.448,183.471 49.200 L 182.200 51.800 182.084 68.966 C 181.929 91.777,182.712 94.266,191.325 98.335 L 194.015 99.606 271.507 99.503 L 349.000 99.400 351.353 98.246 C 354.229 96.835,357.009 94.134,358.604 91.200 L 359.800 89.000 359.800 70.000 L 359.800 51.000 358.639 48.709 C 356.914 45.303,354.115 42.834,349.800 40.913 C 348.114 40.162,200.717 39.659,195.200 40.385 M111.400 193.175 C 110.300 193.357,108.860 193.725,108.200 193.992 C 92.938 200.186,86.742 215.366,93.668 229.597 L 95.324 233.000 129.862 267.607 C 148.858 286.642,164.400 302.388,164.400 302.600 C 164.400 302.811,148.942 318.468,130.050 337.392 C 95.014 372.486,94.069 373.507,92.437 378.000 C 84.887 398.785,105.397 418.742,125.800 410.465 C 130.570 408.530,131.595 407.578,166.255 372.904 C 185.005 354.147,200.493 338.800,200.674 338.800 C 200.854 338.800,216.031 353.846,234.401 372.235 C 252.770 390.624,268.700 406.333,269.800 407.143 C 286.702 419.591,310.416 407.972,310.504 387.200 C 310.518 383.888,309.457 378.206,308.743 377.765 C 308.554 377.648,308.400 377.306,308.400 377.005 C 308.400 374.570,305.313 371.255,271.329 337.190 C 252.558 318.375,237.200 302.760,237.200 302.491 C 237.200 302.221,252.240 286.958,270.621 268.573 C 289.003 250.187,304.799 234.117,305.724 232.861 C 310.576 226.269,312.006 215.128,308.807 208.841 C 308.627 208.488,308.058 207.337,307.540 206.283 C 302.588 196.184,287.933 190.002,277.800 193.737 C 271.234 196.158,273.326 194.268,235.706 231.765 C 216.515 250.895,200.730 266.468,200.630 266.373 C 200.529 266.278,185.182 250.976,166.524 232.369 C 147.866 213.762,132.060 198.173,131.400 197.726 C 125.399 193.666,118.259 192.041,111.400 193.175 " stroke="none" fill="#fcfbfb" fill-rule="evenodd"></path><path id="path1" d="M61.200 0.382 C 61.200 0.592,60.525 0.889,59.700 1.043 C 56.894 1.565,55.001 3.302,29.916 28.359 C 1.625 56.621,2.400 55.688,2.400 61.478 C 2.400 67.032,2.910 67.775,15.357 80.330 C 29.588 94.684,32.593 96.181,40.070 92.644 C 41.284 92.070,42.447 91.600,42.654 91.600 C 43.264 91.600,56.500 105.100,56.343 105.563 C 56.264 105.795,51.325 110.893,45.366 116.893 C 36.387 125.933,32.173 130.475,29.681 133.800 C 24.203 141.108,16.819 154.199,13.549 162.400 C 12.891 164.050,12.116 165.940,11.827 166.600 C 10.706 169.156,9.984 171.146,8.776 175.000 C 8.087 177.200,7.384 179.360,7.215 179.800 C 6.181 182.482,3.982 192.569,3.117 198.600 C 2.233 204.758,2.370 439.487,3.260 443.800 C 7.581 464.739,22.959 479.516,45.000 483.909 C 48.797 484.666,351.853 485.174,353.400 484.427 C 353.840 484.214,355.460 483.867,357.000 483.655 C 359.894 483.258,362.807 482.584,364.200 481.991 C 364.640 481.804,365.450 481.529,366.000 481.380 C 367.065 481.092,373.664 477.962,374.000 477.586 C 374.110 477.462,375.010 476.892,376.000 476.319 C 376.990 475.746,378.192 474.944,378.671 474.538 C 379.150 474.132,380.590 472.909,381.871 471.819 C 390.044 464.868,395.896 454.581,398.264 443.000 C 399.398 437.453,399.416 46.857,398.283 41.800 C 395.396 28.927,389.114 18.457,380.200 11.666 C 378.880 10.660,377.710 9.729,377.600 9.598 C 377.490 9.466,376.680 8.927,375.800 8.400 C 374.920 7.873,374.110 7.340,374.000 7.216 C 372.537 5.558,361.858 1.870,356.400 1.138 C 354.750 0.916,353.340 0.570,353.267 0.367 C 353.089 -0.123,206.513 -0.127,206.333 0.364 C 206.260 0.564,204.310 0.920,202.000 1.156 C 196.516 1.717,190.981 2.779,185.000 4.417 C 183.240 4.899,181.260 5.437,180.600 5.612 C 179.333 5.948,177.138 6.697,175.800 7.251 C 175.360 7.433,174.100 7.874,173.000 8.231 C 171.900 8.588,170.460 9.107,169.800 9.385 C 169.140 9.664,167.790 10.213,166.800 10.606 C 159.383 13.549,149.100 18.853,142.673 23.052 C 134.647 28.295,130.992 31.405,119.466 42.799 C 113.122 49.069,107.753 54.264,107.536 54.343 C 106.879 54.581,93.537 41.079,93.757 40.400 C 93.865 40.070,94.412 38.540,94.974 37.000 C 97.631 29.722,96.253 27.184,81.917 12.959 C 71.916 3.034,70.077 1.551,67.081 0.989 C 66.267 0.836,65.600 0.551,65.600 0.355 C 65.600 0.160,64.610 0.000,63.400 0.000 C 62.190 0.000,61.200 0.172,61.200 0.382 M349.800 40.913 C 354.115 42.834,356.914 45.303,358.639 48.709 L 359.800 51.000 359.800 70.000 L 359.800 89.000 358.604 91.200 C 357.009 94.134,354.229 96.835,351.353 98.246 L 349.000 99.400 271.507 99.503 L 194.015 99.606 191.325 98.335 C 182.712 94.266,181.929 91.777,182.084 68.966 L 182.200 51.800 183.471 49.200 C 185.794 44.448,190.350 41.024,195.200 40.385 C 200.717 39.659,348.114 40.162,349.800 40.913 M124.079 193.986 C 126.386 194.802,129.212 196.246,131.400 197.726 C 132.060 198.173,147.866 213.762,166.524 232.369 C 185.182 250.976,200.529 266.278,200.630 266.373 C 200.730 266.468,216.515 250.895,235.706 231.765 C 273.326 194.268,271.234 196.158,277.800 193.737 C 287.933 190.002,302.588 196.184,307.540 206.283 C 308.058 207.337,308.627 208.488,308.807 208.841 C 312.006 215.128,310.576 226.269,305.724 232.861 C 304.799 234.117,289.003 250.187,270.621 268.573 C 252.240 286.958,237.200 302.221,237.200 302.491 C 237.200 302.760,252.558 318.375,271.329 337.190 C 305.313 371.255,308.400 374.570,308.400 377.005 C 308.400 377.306,308.554 377.648,308.743 377.765 C 309.457 378.206,310.518 383.888,310.504 387.200 C 310.416 407.972,286.702 419.591,269.800 407.143 C 268.700 406.333,252.770 390.624,234.401 372.235 C 216.031 353.846,200.854 338.800,200.674 338.800 C 200.493 338.800,185.005 354.147,166.255 372.904 C 131.595 407.578,130.570 408.530,125.800 410.465 C 107.177 418.020,87.141 401.459,91.364 382.000 C 93.053 374.220,91.525 375.981,130.050 337.392 C 148.942 318.468,164.400 302.811,164.400 302.600 C 164.400 302.388,148.858 286.642,129.862 267.607 L 95.324 233.000 93.668 229.597 C 86.742 215.366,92.938 200.186,108.200 193.992 C 111.622 192.604,120.163 192.600,124.079 193.986 " stroke="none" fill="#fc8c34" fill-rule="evenodd"></path></g></svg>