<svg id="svg" version="1.1" xmlns="http://www.w3.org/2000/svg" xmlns:xlink="http://www.w3.org/1999/xlink" width="400" height="480.88642659279776" viewBox="0, 0, 400,480.88642659279776"><g id="svgg"><path id="path0" d="M58.300 1.259 C 58.499 2.020,58.403 2.087,57.462 1.851 C 56.562 1.625,56.400 1.715,56.400 2.436 C 56.400 3.155,56.237 3.246,55.349 3.023 C 54.301 2.760,52.800 3.790,52.800 4.771 C 52.800 4.993,52.530 5.071,52.200 4.945 C 51.820 4.799,51.600 4.950,51.600 5.357 C 51.600 5.711,51.330 6.000,51.000 6.000 C 50.670 6.000,50.400 6.270,50.400 6.600 C 50.400 6.930,50.130 7.200,49.800 7.200 C 49.470 7.200,49.200 7.470,49.200 7.800 C 49.200 8.130,49.020 8.400,48.800 8.400 C 48.580 8.400,48.400 8.670,48.400 9.000 C 48.400 9.330,48.130 9.600,47.800 9.600 C 47.470 9.600,47.200 9.780,47.200 10.000 C 47.200 10.220,46.930 10.400,46.600 10.400 C 46.270 10.400,46.000 10.670,46.000 11.000 C 46.000 11.330,45.730 11.600,45.400 11.600 C 45.070 11.600,44.800 11.870,44.800 12.200 C 44.800 12.530,44.530 12.800,44.200 12.800 C 43.870 12.800,43.600 12.993,43.600 13.229 C 43.600 13.782,42.582 14.800,42.029 14.800 C 41.793 14.800,41.600 15.070,41.600 15.400 C 41.600 15.730,41.330 16.000,41.000 16.000 C 40.670 16.000,40.400 16.189,40.400 16.419 C 40.400 16.650,39.950 17.255,39.400 17.765 C 38.850 18.275,38.400 18.890,38.400 19.133 C 38.400 19.376,38.130 19.471,37.800 19.345 C 37.420 19.199,37.200 19.350,37.200 19.757 C 37.200 20.111,36.930 20.400,36.600 20.400 C 36.270 20.400,36.000 20.670,36.000 21.000 C 36.000 21.330,35.730 21.600,35.400 21.600 C 35.070 21.600,34.800 21.774,34.800 21.986 C 34.800 22.509,32.531 24.800,32.013 24.800 C 31.786 24.800,31.600 25.070,31.600 25.400 C 31.600 25.730,31.330 26.000,31.000 26.000 C 30.670 26.000,30.400 26.270,30.400 26.600 C 30.400 26.930,30.130 27.200,29.800 27.200 C 29.470 27.200,29.200 27.393,29.200 27.629 C 29.200 27.864,28.943 28.314,28.629 28.629 C 28.314 28.943,27.864 29.200,27.629 29.200 C 27.393 29.200,27.200 29.470,27.200 29.800 C 27.200 30.130,26.930 30.400,26.600 30.400 C 26.270 30.400,26.000 30.670,26.000 31.000 C 26.000 31.330,25.730 31.600,25.400 31.600 C 25.070 31.600,24.800 31.870,24.800 32.200 C 24.800 32.530,24.620 32.800,24.400 32.800 C 24.180 32.800,24.000 33.064,24.000 33.387 C 24.000 33.745,23.765 33.885,23.400 33.745 C 23.020 33.599,22.800 33.750,22.800 34.157 C 22.800 34.511,22.530 34.800,22.200 34.800 C 21.870 34.800,21.600 35.070,21.600 35.400 C 21.600 35.730,21.330 36.000,21.000 36.000 C 20.670 36.000,20.400 36.270,20.400 36.600 C 20.400 36.930,20.130 37.200,19.800 37.200 C 19.470 37.200,19.200 37.393,19.200 37.629 C 19.200 38.182,18.182 39.200,17.629 39.200 C 17.393 39.200,17.200 39.470,17.200 39.800 C 17.200 40.130,16.930 40.400,16.600 40.400 C 16.270 40.400,16.000 40.670,16.000 41.000 C 16.000 41.330,15.730 41.600,15.400 41.600 C 15.070 41.600,14.800 41.793,14.800 42.029 C 14.800 42.582,13.782 43.600,13.229 43.600 C 12.993 43.600,12.800 43.870,12.800 44.200 C 12.800 44.530,12.530 44.800,12.200 44.800 C 11.870 44.800,11.600 45.070,11.600 45.400 C 11.600 45.730,11.330 46.000,11.000 46.000 C 10.670 46.000,10.400 46.193,10.400 46.429 C 10.400 46.982,9.382 48.000,8.829 48.000 C 8.593 48.000,8.400 48.270,8.400 48.600 C 8.400 48.930,8.130 49.200,7.800 49.200 C 7.470 49.200,7.200 49.470,7.200 49.800 C 7.200 50.130,6.930 50.400,6.600 50.400 C 6.270 50.400,6.000 50.670,6.000 51.000 C 6.000 51.330,5.711 51.600,5.357 51.600 C 4.950 51.600,4.799 51.820,4.945 52.200 C 5.085 52.565,4.945 52.800,4.587 52.800 C 4.228 52.800,4.000 53.187,4.000 53.800 C 4.000 54.461,3.777 54.800,3.342 54.800 C 2.774 54.800,2.718 55.156,2.927 57.400 C 3.151 59.799,3.109 60.000,2.385 60.000 C 1.786 60.000,1.600 60.274,1.600 61.156 C 1.600 62.009,1.782 62.297,2.297 62.256 C 2.905 62.207,2.977 62.522,2.861 64.700 C 2.749 66.776,2.834 67.200,3.363 67.200 C 3.776 67.200,4.000 67.552,4.000 68.200 C 4.000 68.839,4.225 69.200,4.624 69.200 C 4.967 69.200,5.135 69.381,4.998 69.603 C 4.861 69.824,5.031 70.114,5.375 70.246 C 5.719 70.378,6.000 70.736,6.000 71.043 C 6.000 71.349,6.270 71.600,6.600 71.600 C 6.930 71.600,7.200 71.780,7.200 72.000 C 7.200 72.220,7.470 72.400,7.800 72.400 C 8.130 72.400,8.400 72.670,8.400 73.000 C 8.400 73.330,8.670 73.600,9.000 73.600 C 9.330 73.600,9.600 73.794,9.600 74.031 C 9.600 74.591,11.809 76.800,12.369 76.800 C 12.606 76.800,12.800 77.070,12.800 77.400 C 12.800 77.730,13.070 78.000,13.400 78.000 C 13.730 78.000,14.000 78.270,14.000 78.600 C 14.000 78.930,14.180 79.200,14.400 79.200 C 14.620 79.200,14.800 79.470,14.800 79.800 C 14.800 80.130,15.070 80.400,15.400 80.400 C 15.730 80.400,16.000 80.670,16.000 81.000 C 16.000 81.330,16.270 81.600,16.600 81.600 C 16.930 81.600,17.200 81.780,17.200 82.000 C 17.200 82.220,17.470 82.400,17.800 82.400 C 18.130 82.400,18.400 82.604,18.400 82.854 C 18.400 83.104,18.850 83.725,19.400 84.235 C 19.950 84.745,20.400 85.350,20.400 85.581 C 20.400 85.811,20.670 86.000,21.000 86.000 C 21.330 86.000,21.600 86.180,21.600 86.400 C 21.600 86.620,21.870 86.800,22.200 86.800 C 22.530 86.800,22.800 87.070,22.800 87.400 C 22.800 87.730,23.070 88.000,23.400 88.000 C 23.730 88.000,24.000 88.194,24.000 88.431 C 24.000 89.278,26.338 91.200,27.369 91.200 C 28.057 91.200,28.400 91.418,28.400 91.854 C 28.400 92.402,28.700 92.468,30.238 92.257 C 31.852 92.036,32.102 92.102,32.285 92.802 C 32.557 93.843,37.200 94.030,37.200 93.000 C 37.200 92.567,37.644 92.400,38.800 92.400 C 39.956 92.400,40.400 92.233,40.400 91.800 C 40.400 91.400,40.800 91.200,41.600 91.200 C 42.400 91.200,42.800 91.400,42.800 91.800 C 42.800 92.130,43.064 92.400,43.387 92.400 C 43.745 92.400,43.885 92.635,43.745 93.000 C 43.599 93.380,43.750 93.600,44.157 93.600 C 44.511 93.600,44.800 93.870,44.800 94.200 C 44.800 94.530,45.070 94.800,45.400 94.800 C 45.730 94.800,46.000 95.070,46.000 95.400 C 46.000 95.730,46.270 96.000,46.600 96.000 C 46.930 96.000,47.200 96.180,47.200 96.400 C 47.200 96.620,47.470 96.800,47.800 96.800 C 48.130 96.800,48.400 97.070,48.400 97.400 C 48.400 97.730,48.580 98.000,48.800 98.000 C 49.020 98.000,49.200 98.270,49.200 98.600 C 49.200 98.930,49.470 99.200,49.800 99.200 C 50.130 99.200,50.400 99.470,50.400 99.800 C 50.400 100.130,50.670 100.400,51.000 100.400 C 51.330 100.400,51.600 100.580,51.600 100.800 C 51.600 101.020,51.870 101.200,52.200 101.200 C 52.530 101.200,52.800 101.470,52.800 101.800 C 52.800 102.130,53.089 102.400,53.443 102.400 C 53.850 102.400,54.001 102.620,53.855 103.000 C 53.715 103.365,53.855 103.600,54.213 103.600 C 54.599 103.600,54.800 104.011,54.800 104.800 C 54.800 105.460,54.607 106.000,54.371 106.000 C 53.818 106.000,52.800 107.018,52.800 107.571 C 52.800 107.807,52.530 108.000,52.200 108.000 C 51.870 108.000,51.600 108.270,51.600 108.600 C 51.600 108.930,51.330 109.200,51.000 109.200 C 50.670 109.200,50.400 109.470,50.400 109.800 C 50.400 110.130,50.207 110.400,49.971 110.400 C 49.418 110.400,48.400 111.418,48.400 111.971 C 48.400 112.207,48.130 112.400,47.800 112.400 C 47.470 112.400,47.200 112.670,47.200 113.000 C 47.200 113.330,46.930 113.600,46.600 113.600 C 46.270 113.600,46.000 113.870,46.000 114.200 C 46.000 114.530,45.834 114.800,45.631 114.800 C 45.150 114.800,42.800 117.150,42.800 117.631 C 42.800 117.834,42.530 118.000,42.200 118.000 C 41.870 118.000,41.600 118.270,41.600 118.600 C 41.600 118.930,41.330 119.200,41.000 119.200 C 40.670 119.200,40.400 119.470,40.400 119.800 C 40.400 120.130,40.207 120.400,39.971 120.400 C 39.418 120.400,38.400 121.418,38.400 121.971 C 38.400 122.207,38.130 122.400,37.800 122.400 C 37.470 122.400,37.200 122.670,37.200 123.000 C 37.200 123.330,36.930 123.600,36.600 123.600 C 36.270 123.600,36.000 123.870,36.000 124.200 C 36.000 124.530,35.814 124.800,35.587 124.800 C 35.056 124.800,32.800 127.097,32.800 127.637 C 32.800 127.863,32.954 127.952,33.142 127.836 C 33.330 127.719,33.399 128.069,33.296 128.612 C 33.177 129.233,32.835 129.600,32.377 129.600 C 31.976 129.600,31.534 129.783,31.396 130.007 C 31.258 130.230,30.977 130.309,30.772 130.183 C 30.568 130.056,30.400 130.233,30.400 130.576 C 30.400 130.919,30.151 131.200,29.847 131.200 C 29.542 131.200,29.199 131.560,29.084 132.001 C 28.969 132.441,29.038 132.700,29.237 132.577 C 29.437 132.454,29.600 132.743,29.600 133.219 C 29.600 133.825,29.420 134.016,29.000 133.855 C 28.635 133.715,28.400 133.855,28.400 134.213 C 28.400 134.536,28.130 134.800,27.800 134.800 C 27.470 134.800,27.200 134.980,27.200 135.200 C 27.200 135.420,26.930 135.600,26.600 135.600 C 26.200 135.600,26.000 136.000,26.000 136.800 C 26.000 137.600,25.800 138.000,25.400 138.000 C 25.070 138.000,24.800 138.270,24.800 138.600 C 24.800 138.930,24.620 139.200,24.400 139.200 C 24.180 139.200,24.000 139.650,24.000 140.200 C 24.000 140.856,23.777 141.200,23.350 141.200 C 22.840 141.200,22.752 141.460,22.943 142.413 C 23.173 143.567,21.908 144.725,20.700 144.465 C 20.535 144.429,20.400 144.921,20.400 145.557 C 20.400 146.217,20.142 146.813,19.800 146.945 C 19.470 147.071,19.200 147.631,19.200 148.187 C 19.200 148.744,19.020 149.200,18.800 149.200 C 18.580 149.200,18.400 149.650,18.400 150.200 C 18.400 150.822,18.173 151.200,17.800 151.200 C 17.400 151.200,17.200 151.600,17.200 152.400 C 17.200 153.200,17.000 153.600,16.600 153.600 C 16.227 153.600,16.000 153.978,16.000 154.600 C 16.000 155.222,15.773 155.600,15.400 155.600 C 15.000 155.600,14.800 156.000,14.800 156.800 C 14.800 157.460,14.620 158.000,14.400 158.000 C 14.180 158.000,14.000 158.450,14.000 159.000 C 14.000 159.660,13.777 160.000,13.344 160.000 C 12.793 160.000,12.726 160.317,12.925 162.000 C 13.138 163.798,13.083 164.000,12.381 164.000 C 11.867 164.000,11.600 164.273,11.600 164.800 C 11.600 165.244,11.333 165.600,11.000 165.600 C 10.567 165.600,10.400 166.044,10.400 167.200 C 10.400 168.130,10.209 168.800,9.944 168.800 C 9.633 168.800,9.563 169.432,9.725 170.800 C 9.941 172.618,9.889 172.800,9.154 172.800 C 8.450 172.800,8.362 173.019,8.473 174.500 C 8.580 175.935,8.491 176.182,7.900 176.082 C 7.343 175.989,7.200 176.254,7.200 177.382 C 7.200 178.376,7.020 178.800,6.600 178.800 C 5.876 178.800,5.759 181.602,6.430 182.856 C 6.787 183.524,6.724 183.695,6.050 183.871 C 5.408 184.039,5.216 184.468,5.120 185.941 C 5.041 187.167,4.830 187.766,4.500 187.700 C 4.130 187.626,4.000 188.533,4.000 191.200 C 4.000 194.057,3.882 194.800,3.427 194.800 C 2.980 194.800,2.827 195.629,2.727 198.601 C 2.657 200.691,2.746 202.401,2.924 202.401 C 3.102 202.400,3.192 203.075,3.124 203.900 C 3.030 205.041,2.833 205.387,2.300 205.344 C 1.635 205.292,1.600 210.954,1.600 319.111 C 1.600 381.713,1.718 432.815,1.863 432.670 C 2.765 431.768,3.152 433.438,2.921 437.233 C 2.692 440.992,2.720 441.200,3.465 441.200 C 4.178 441.200,4.235 441.422,4.077 443.600 C 3.927 445.686,3.996 446.000,4.605 446.000 C 5.191 446.000,5.270 446.261,5.091 447.600 C 4.929 448.809,5.013 449.200,5.438 449.200 C 5.796 449.200,6.000 449.636,6.000 450.400 C 6.000 451.200,6.200 451.600,6.600 451.600 C 6.973 451.600,7.200 451.978,7.200 452.600 C 7.200 453.222,7.427 453.600,7.800 453.600 C 8.200 453.600,8.400 454.000,8.400 454.800 C 8.400 455.600,8.600 456.000,9.000 456.000 C 9.373 456.000,9.600 456.378,9.600 457.000 C 9.600 457.550,9.780 458.000,10.000 458.000 C 10.220 458.000,10.400 458.270,10.400 458.600 C 10.400 458.930,10.670 459.200,11.000 459.200 C 11.330 459.200,11.600 459.359,11.600 459.553 C 11.600 459.748,12.005 460.021,12.500 460.160 C 13.306 460.387,13.333 460.465,12.753 460.912 C 12.077 461.433,12.616 462.400,13.583 462.400 C 13.812 462.400,14.000 462.670,14.000 463.000 C 14.000 463.330,14.180 463.600,14.400 463.600 C 14.620 463.600,14.800 463.870,14.800 464.200 C 14.800 464.530,15.070 464.800,15.400 464.800 C 15.730 464.800,16.000 465.070,16.000 465.400 C 16.000 465.730,16.270 466.000,16.600 466.000 C 16.930 466.000,17.200 466.180,17.200 466.400 C 17.200 466.620,17.470 466.800,17.800 466.800 C 18.130 466.800,18.400 467.004,18.400 467.254 C 18.400 467.504,18.850 468.125,19.400 468.635 C 19.950 469.145,20.400 469.750,20.400 469.981 C 20.400 470.519,21.038 470.515,22.056 469.970 C 22.727 469.611,22.895 469.677,23.076 470.370 C 23.196 470.827,23.452 471.200,23.647 471.200 C 23.841 471.200,24.000 471.470,24.000 471.800 C 24.000 472.130,24.167 472.400,24.371 472.400 C 24.575 472.400,24.824 472.715,24.924 473.100 C 25.098 473.767,25.109 473.767,25.154 473.100 C 25.210 472.249,26.400 472.153,26.400 473.000 C 26.400 473.330,26.580 473.600,26.800 473.600 C 27.020 473.600,27.200 473.870,27.200 474.200 C 27.200 474.575,27.579 474.800,28.213 474.800 C 28.769 474.800,29.329 475.070,29.455 475.400 C 29.582 475.730,30.116 476.000,30.643 476.000 C 31.169 476.000,31.600 476.203,31.600 476.452 C 31.600 476.753,32.218 476.834,33.449 476.696 C 35.044 476.516,35.326 476.595,35.502 477.269 C 35.666 477.895,35.994 478.026,37.153 477.925 C 38.365 477.820,38.590 477.922,38.536 478.552 C 38.477 479.234,38.697 479.284,40.873 479.087 C 43.095 478.885,43.260 478.927,43.075 479.635 C 42.878 480.388,45.415 480.399,199.537 480.354 C 285.702 480.328,355.885 480.225,355.500 480.124 C 355.115 480.024,354.800 479.685,354.800 479.371 C 354.800 478.766,355.423 478.591,355.742 479.106 C 356.105 479.694,359.672 479.166,359.439 478.558 C 359.276 478.132,359.648 478.000,361.013 478.000 C 362.335 478.000,362.800 477.844,362.800 477.400 C 362.800 476.956,363.267 476.800,364.600 476.800 C 365.590 476.800,366.400 476.620,366.400 476.400 C 366.400 476.180,366.850 476.000,367.400 476.000 C 368.022 476.000,368.400 475.773,368.400 475.400 C 368.400 475.025,368.779 474.800,369.413 474.800 C 369.969 474.800,370.529 474.530,370.655 474.200 C 370.782 473.870,371.316 473.600,371.843 473.600 C 372.427 473.600,372.800 473.366,372.800 473.000 C 372.800 472.670,373.070 472.400,373.400 472.400 C 373.730 472.400,374.000 472.130,374.000 471.800 C 374.000 471.278,374.731 471.000,375.700 471.153 C 375.865 471.179,376.000 471.020,376.000 470.800 C 376.000 470.580,376.270 470.400,376.600 470.400 C 376.930 470.400,377.200 470.130,377.200 469.800 C 377.200 469.470,377.470 469.200,377.800 469.200 C 378.130 469.200,378.400 468.930,378.400 468.600 C 378.400 468.270,378.670 468.000,379.000 468.000 C 379.330 468.000,379.600 467.730,379.600 467.400 C 379.600 467.070,379.793 466.800,380.029 466.800 C 380.264 466.800,380.714 466.543,381.029 466.229 C 381.343 465.914,381.600 465.464,381.600 465.229 C 381.600 464.993,381.870 464.800,382.200 464.800 C 382.530 464.800,382.800 464.530,382.800 464.200 C 382.800 463.870,383.070 463.600,383.400 463.600 C 383.730 463.600,384.000 463.330,384.000 463.000 C 384.000 462.670,384.193 462.400,384.429 462.400 C 385.379 462.400,386.064 461.201,385.799 459.997 C 385.573 458.967,385.653 458.800,386.368 458.800 C 386.826 458.800,387.200 458.620,387.200 458.400 C 387.200 458.180,387.470 458.000,387.800 458.000 C 388.173 458.000,388.400 457.622,388.400 457.000 C 388.400 456.378,388.627 456.000,389.000 456.000 C 389.330 456.000,389.600 455.730,389.600 455.400 C 389.600 455.070,389.802 454.800,390.049 454.800 C 390.342 454.800,390.307 454.564,389.949 454.123 C 389.576 453.663,389.560 453.543,389.900 453.747 C 390.263 453.965,390.400 453.656,390.400 452.624 C 390.400 451.593,390.574 451.200,391.032 451.200 C 391.526 451.200,391.606 450.938,391.400 450.000 C 391.173 448.967,391.252 448.800,391.968 448.800 C 392.786 448.800,393.009 448.148,392.821 446.300 C 392.782 445.915,392.928 445.600,393.146 445.600 C 393.363 445.600,393.624 445.915,393.724 446.300 C 393.825 446.685,393.928 445.965,393.954 444.700 C 393.991 442.862,394.131 442.400,394.650 442.400 C 395.214 442.400,395.276 441.943,395.120 438.961 C 394.982 436.343,395.066 435.473,395.470 435.318 C 396.277 435.008,396.258 45.600,395.450 45.600 C 395.009 45.600,394.941 44.887,395.106 42.000 C 395.285 38.848,395.229 38.400,394.655 38.400 C 394.130 38.400,393.991 37.945,393.954 36.100 C 393.928 34.835,393.825 34.115,393.724 34.500 C 393.486 35.411,392.728 35.411,392.821 34.500 C 393.009 32.652,392.786 32.000,391.968 32.000 C 391.252 32.000,391.173 31.833,391.400 30.800 C 391.606 29.862,391.526 29.600,391.032 29.600 C 390.596 29.600,390.400 29.227,390.400 28.400 C 390.400 27.740,390.220 27.200,390.000 27.200 C 389.780 27.200,389.600 27.009,389.600 26.776 C 389.600 26.543,389.780 26.464,390.000 26.600 C 390.776 27.080,390.388 26.280,389.400 25.365 C 388.850 24.855,388.400 24.070,388.400 23.619 C 388.400 23.158,388.138 22.800,387.800 22.800 C 387.470 22.800,387.200 22.612,387.200 22.382 C 387.200 22.153,386.885 22.018,386.500 22.082 C 385.934 22.177,385.820 21.946,385.905 20.876 C 386.007 19.582,385.302 18.400,384.429 18.400 C 384.193 18.400,384.000 18.130,384.000 17.800 C 384.000 17.470,383.730 17.200,383.400 17.200 C 383.070 17.200,382.800 16.930,382.800 16.600 C 382.800 16.270,382.560 16.000,382.268 16.000 C 381.975 16.000,381.494 15.550,381.200 15.000 C 380.906 14.450,380.425 14.000,380.132 14.000 C 379.840 14.000,379.600 13.730,379.600 13.400 C 379.600 13.070,379.330 12.800,379.000 12.800 C 378.670 12.800,378.400 12.530,378.400 12.200 C 378.400 11.870,378.130 11.600,377.800 11.600 C 377.470 11.600,377.199 11.375,377.197 11.100 C 377.194 10.584,375.439 9.600,374.520 9.600 C 374.234 9.600,374.000 9.330,374.000 9.000 C 374.000 8.670,373.730 8.400,373.400 8.400 C 373.070 8.400,372.800 8.130,372.800 7.800 C 372.800 7.427,372.422 7.200,371.800 7.200 C 371.178 7.200,370.800 6.973,370.800 6.600 C 370.800 6.200,370.400 6.000,369.600 6.000 C 368.793 6.000,368.400 5.801,368.400 5.392 C 368.400 4.944,368.138 4.851,367.400 5.036 C 366.644 5.226,366.400 5.130,366.400 4.643 C 366.400 4.148,365.987 4.000,364.600 4.000 C 363.267 4.000,362.800 3.844,362.800 3.400 C 362.800 3.027,362.422 2.800,361.800 2.800 C 361.178 2.800,360.800 2.573,360.800 2.200 C 360.800 1.870,360.626 1.600,360.413 1.600 C 360.199 1.600,360.129 1.870,360.255 2.200 C 360.382 2.530,360.286 2.800,360.043 2.800 C 359.799 2.800,359.600 2.530,359.600 2.200 C 359.600 1.777,359.172 1.600,358.144 1.600 C 357.224 1.600,356.495 1.342,356.164 0.900 C 355.687 0.263,355.660 0.281,355.867 1.100 C 356.036 1.774,355.920 2.000,355.400 2.000 C 354.904 2.000,354.766 1.773,354.916 1.200 C 355.125 0.402,354.928 0.400,276.800 0.400 C 200.605 0.400,198.480 0.420,198.670 1.145 C 198.896 2.010,197.695 2.655,197.053 2.013 C 196.358 1.318,191.200 1.483,191.200 2.200 C 191.200 2.653,190.711 2.800,189.200 2.800 C 187.492 2.800,187.200 2.912,187.200 3.571 C 187.200 4.267,186.984 4.320,185.000 4.115 C 182.945 3.903,182.800 3.945,182.800 4.749 C 182.800 5.590,181.172 5.683,178.885 4.973 C 178.602 4.885,178.267 5.080,178.142 5.407 C 177.989 5.807,177.341 6.000,176.157 6.000 C 174.862 6.000,174.400 6.158,174.400 6.600 C 174.400 7.033,173.956 7.200,172.800 7.200 C 171.644 7.200,171.200 7.367,171.200 7.800 C 171.200 8.130,170.861 8.400,170.447 8.400 C 170.032 8.400,169.604 8.740,169.496 9.156 C 169.327 9.801,169.025 9.882,167.449 9.704 C 166.218 9.566,165.600 9.647,165.600 9.948 C 165.600 10.197,165.253 10.400,164.828 10.400 C 164.334 10.400,164.006 10.725,163.918 11.300 C 163.832 11.866,163.562 12.139,163.191 12.036 C 161.222 11.489,160.000 11.535,160.000 12.156 C 160.000 12.576,159.652 12.800,159.000 12.800 C 158.378 12.800,158.000 13.027,158.000 13.400 C 158.000 13.800,157.600 14.000,156.800 14.000 C 156.140 14.000,155.600 14.180,155.600 14.400 C 155.600 14.620,155.234 14.800,154.787 14.800 C 154.341 14.800,153.871 15.070,153.745 15.400 C 153.613 15.742,153.017 16.000,152.357 16.000 C 151.595 16.000,151.200 16.205,151.200 16.600 C 151.200 16.973,150.822 17.200,150.200 17.200 C 149.578 17.200,149.200 17.427,149.200 17.800 C 149.200 18.130,148.846 18.400,148.413 18.400 C 147.877 18.400,147.699 18.592,147.855 19.000 C 147.982 19.330,147.886 19.600,147.643 19.600 C 147.399 19.600,147.200 19.304,147.200 18.942 C 147.200 18.439,146.968 18.534,146.219 19.342 C 145.680 19.924,144.870 20.400,144.419 20.400 C 143.958 20.400,143.600 20.662,143.600 21.000 C 143.600 21.330,143.330 21.600,143.000 21.600 C 142.670 21.600,142.400 21.870,142.400 22.200 C 142.400 22.600,142.000 22.800,141.200 22.800 C 140.400 22.800,140.000 23.000,140.000 23.400 C 140.000 23.987,139.546 24.170,138.460 24.021 C 138.163 23.980,138.038 24.139,138.183 24.373 C 138.338 24.623,138.105 24.800,137.624 24.800 C 137.158 24.800,136.800 25.061,136.800 25.400 C 136.800 25.730,136.640 26.000,136.444 26.000 C 136.249 26.000,136.114 26.315,136.144 26.700 C 136.188 27.253,135.927 27.379,134.900 27.298 C 133.965 27.225,133.600 27.366,133.600 27.798 C 133.600 28.129,133.330 28.400,133.000 28.400 C 132.670 28.400,132.400 28.580,132.400 28.800 C 132.400 29.020,132.130 29.200,131.800 29.200 C 131.470 29.200,131.200 29.470,131.200 29.800 C 131.200 30.130,131.020 30.400,130.800 30.400 C 130.580 30.400,130.400 30.756,130.400 31.190 C 130.400 31.854,130.209 31.942,129.200 31.740 C 128.261 31.552,128.000 31.641,128.000 32.150 C 128.000 32.508,127.814 32.800,127.587 32.800 C 127.069 32.800,124.800 35.091,124.800 35.614 C 124.800 35.826,124.530 36.000,124.200 36.000 C 123.870 36.000,123.600 36.270,123.600 36.600 C 123.600 36.930,123.330 37.200,123.000 37.200 C 122.670 37.200,122.400 37.470,122.400 37.800 C 122.400 38.130,122.207 38.400,121.971 38.400 C 121.418 38.400,120.400 39.418,120.400 39.971 C 120.400 40.207,120.130 40.400,119.800 40.400 C 119.470 40.400,119.200 40.670,119.200 41.000 C 119.200 41.330,118.930 41.600,118.600 41.600 C 118.270 41.600,118.000 41.870,118.000 42.200 C 118.000 42.530,117.826 42.800,117.614 42.800 C 117.091 42.800,114.800 45.069,114.800 45.587 C 114.800 45.814,114.530 46.000,114.200 46.000 C 113.870 46.000,113.600 46.270,113.600 46.600 C 113.600 46.930,113.406 47.200,113.169 47.200 C 112.609 47.200,110.400 49.409,110.400 49.969 C 110.400 50.206,110.130 50.400,109.800 50.400 C 109.470 50.400,109.200 50.670,109.200 51.000 C 109.200 51.330,108.930 51.600,108.600 51.600 C 108.270 51.600,108.000 51.870,108.000 52.200 C 108.000 52.530,107.745 52.800,107.433 52.800 C 107.122 52.800,106.762 53.025,106.633 53.300 C 106.447 53.700,106.353 53.700,106.167 53.300 C 106.038 53.025,105.678 52.800,105.367 52.800 C 105.055 52.800,104.800 52.530,104.800 52.200 C 104.800 51.870,104.530 51.600,104.200 51.600 C 103.870 51.600,103.600 51.330,103.600 51.000 C 103.600 50.670,103.330 50.400,103.000 50.400 C 102.670 50.400,102.400 50.130,102.400 49.800 C 102.400 49.470,102.130 49.200,101.800 49.200 C 101.470 49.200,101.200 49.007,101.200 48.771 C 101.200 48.218,100.182 47.200,99.629 47.200 C 99.393 47.200,99.200 46.930,99.200 46.600 C 99.200 46.270,98.930 46.000,98.600 46.000 C 98.270 46.000,98.000 45.730,98.000 45.400 C 98.000 45.070,97.760 44.800,97.468 44.800 C 97.175 44.800,96.694 44.350,96.400 43.800 C 96.106 43.250,95.625 42.800,95.332 42.800 C 95.040 42.800,94.800 42.530,94.800 42.200 C 94.800 41.870,94.530 41.600,94.200 41.600 C 93.769 41.600,93.600 41.160,93.600 40.043 C 93.600 39.028,93.809 38.405,94.200 38.255 C 95.277 37.842,95.067 27.600,93.982 27.600 C 93.264 27.600,93.196 27.429,93.426 26.200 C 93.638 25.071,93.564 24.800,93.045 24.800 C 92.684 24.800,92.400 24.474,92.400 24.058 C 92.400 23.651,91.950 22.831,91.400 22.238 C 90.850 21.644,90.400 20.988,90.400 20.779 C 90.400 20.571,90.149 20.400,89.843 20.400 C 89.536 20.400,89.178 20.119,89.046 19.775 C 88.914 19.431,88.624 19.261,88.403 19.398 C 88.181 19.535,88.000 19.367,88.000 19.024 C 88.000 18.681,87.730 18.400,87.400 18.400 C 87.070 18.400,86.800 18.130,86.800 17.800 C 86.800 17.470,86.620 17.200,86.400 17.200 C 86.180 17.200,86.000 16.930,86.000 16.600 C 86.000 16.270,85.811 16.000,85.581 16.000 C 85.350 16.000,84.745 15.550,84.235 15.000 C 83.725 14.450,83.104 14.000,82.854 14.000 C 82.604 14.000,82.400 13.796,82.400 13.546 C 82.400 13.296,81.950 12.675,81.400 12.165 C 80.850 11.655,80.400 11.050,80.400 10.819 C 80.400 10.589,80.130 10.400,79.800 10.400 C 79.470 10.400,79.200 10.220,79.200 10.000 C 79.200 9.780,78.930 9.600,78.600 9.600 C 78.270 9.600,78.000 9.396,78.000 9.146 C 78.000 8.896,77.550 8.275,77.000 7.765 C 76.450 7.255,76.000 6.650,76.000 6.419 C 76.000 6.189,75.749 6.000,75.443 6.000 C 75.136 6.000,74.778 5.719,74.646 5.375 C 74.514 5.031,74.224 4.861,74.003 4.998 C 73.781 5.135,73.600 4.967,73.600 4.624 C 73.600 4.197,73.220 4.000,72.400 4.000 C 71.600 4.000,71.200 3.800,71.200 3.400 C 71.200 3.070,71.020 2.800,70.800 2.800 C 70.580 2.800,70.400 2.530,70.400 2.200 C 70.400 1.805,70.005 1.600,69.243 1.600 C 68.583 1.600,67.987 1.342,67.855 1.000 C 67.427 -0.117,58.006 0.138,58.300 1.259 M342.279 39.582 C 342.450 40.233,342.895 40.384,344.942 40.482 C 346.647 40.564,347.369 40.753,347.300 41.100 C 347.238 41.411,347.653 41.600,348.400 41.600 C 349.200 41.600,349.600 41.800,349.600 42.200 C 349.600 42.530,349.870 42.800,350.200 42.800 C 350.530 42.800,350.800 42.980,350.800 43.200 C 350.800 43.420,351.055 43.600,351.366 43.600 C 351.678 43.600,352.172 44.140,352.464 44.800 C 352.756 45.460,353.221 46.000,353.498 46.000 C 353.774 46.000,354.000 46.270,354.000 46.600 C 354.000 46.930,354.270 47.200,354.600 47.200 C 354.973 47.200,355.200 47.578,355.200 48.200 C 355.200 48.822,355.427 49.200,355.800 49.200 C 356.219 49.200,356.400 49.622,356.400 50.600 C 356.400 51.552,356.584 52.000,356.976 52.000 C 357.781 52.000,358.179 52.781,357.645 53.315 C 357.057 53.903,357.013 84.637,357.600 85.000 C 358.286 85.424,358.038 86.465,357.200 86.684 C 356.633 86.832,356.400 87.230,356.400 88.047 C 356.400 88.805,356.195 89.200,355.800 89.200 C 355.467 89.200,355.200 89.556,355.200 90.000 C 355.200 90.833,353.894 92.400,353.200 92.400 C 352.980 92.400,352.800 92.670,352.800 93.000 C 352.800 93.330,352.991 93.600,353.224 93.600 C 353.457 93.600,353.536 93.420,353.400 93.200 C 353.264 92.980,353.343 92.800,353.576 92.800 C 354.099 92.800,354.100 92.886,353.594 94.216 C 353.258 95.100,353.015 95.240,352.185 95.032 C 351.484 94.856,351.112 94.964,350.948 95.390 C 350.820 95.726,350.464 96.000,350.157 96.000 C 349.851 96.000,349.600 96.180,349.600 96.400 C 349.600 96.620,349.169 96.800,348.643 96.800 C 348.116 96.800,347.582 97.070,347.455 97.400 C 347.311 97.777,346.699 98.000,345.813 98.000 C 344.734 98.000,344.400 98.165,344.400 98.700 C 344.400 99.710,193.485 99.619,193.271 98.609 C 193.182 98.192,192.659 98.000,191.613 98.000 C 190.624 98.000,190.004 97.788,189.855 97.400 C 189.729 97.070,189.259 96.800,188.813 96.800 C 188.366 96.800,188.000 96.620,188.000 96.400 C 188.000 96.180,187.730 96.000,187.400 96.000 C 187.070 96.000,186.800 95.730,186.800 95.400 C 186.800 95.070,186.530 94.800,186.200 94.800 C 185.870 94.800,185.600 94.530,185.600 94.200 C 185.600 93.870,185.330 93.600,185.000 93.600 C 184.670 93.600,184.400 93.356,184.400 93.058 C 184.400 92.760,183.815 92.340,183.100 92.125 C 181.790 91.731,181.716 91.578,182.213 90.300 C 182.416 89.779,182.285 89.600,181.703 89.600 C 180.979 89.600,180.935 89.376,181.110 86.636 C 181.285 83.921,181.238 83.677,180.550 83.736 C 179.832 83.797,179.795 83.220,179.688 70.200 C 179.570 55.812,179.648 54.579,180.648 54.963 C 181.175 55.165,181.244 54.767,181.132 52.199 C 181.006 49.334,181.594 47.997,182.143 49.900 C 182.254 50.285,182.321 49.859,182.292 48.953 C 182.239 47.340,183.001 46.000,183.971 46.000 C 184.207 46.000,184.400 45.730,184.400 45.400 C 184.400 45.070,184.670 44.800,185.000 44.800 C 185.330 44.800,185.600 44.530,185.600 44.200 C 185.600 43.870,185.870 43.600,186.200 43.600 C 186.530 43.600,186.800 43.420,186.800 43.200 C 186.800 42.980,187.295 42.779,187.900 42.754 C 188.577 42.725,188.731 42.637,188.300 42.524 C 187.261 42.253,187.452 41.600,188.571 41.600 C 189.161 41.600,189.592 41.337,189.671 40.930 C 189.778 40.371,190.241 40.275,192.447 40.355 C 194.826 40.442,195.115 40.368,195.309 39.626 L 195.525 38.800 268.800 38.800 C 341.176 38.800,342.077 38.810,342.279 39.582 M283.825 191.127 C 286.598 191.034,287.602 191.130,287.601 191.487 C 287.600 191.771,287.307 191.881,286.900 191.750 C 286.309 191.560,286.294 191.592,286.800 191.956 C 287.130 192.194,288.165 192.391,289.100 192.394 C 290.035 192.397,290.800 192.580,290.800 192.800 C 290.800 193.020,291.340 193.200,292.000 193.200 C 292.800 193.200,293.200 193.400,293.200 193.800 C 293.200 194.173,293.578 194.400,294.200 194.400 C 294.822 194.400,295.200 194.627,295.200 195.000 C 295.200 195.400,295.600 195.600,296.400 195.600 C 297.200 195.600,297.600 195.800,297.600 196.200 C 297.600 196.530,297.793 196.800,298.029 196.800 C 298.582 196.800,299.600 197.818,299.600 198.371 C 299.600 198.607,299.870 198.800,300.200 198.800 C 300.530 198.800,300.800 199.070,300.800 199.400 C 300.800 199.730,301.070 200.000,301.400 200.000 C 301.730 200.000,302.000 200.270,302.000 200.600 C 302.000 200.930,302.270 201.200,302.600 201.200 C 302.930 201.200,303.200 201.380,303.200 201.600 C 303.200 201.820,303.484 202.000,303.832 202.000 C 304.326 202.000,304.406 202.262,304.200 203.200 C 303.994 204.138,304.074 204.400,304.568 204.400 C 304.933 204.400,305.200 204.738,305.200 205.200 C 305.200 205.741,305.467 206.000,306.025 206.000 C 306.772 206.000,306.824 206.164,306.585 207.762 C 306.352 209.318,306.407 209.517,307.060 209.462 C 307.532 209.422,307.788 209.653,307.767 210.100 C 307.748 210.485,307.703 213.320,307.667 216.400 C 307.611 221.081,307.502 222.000,307.000 222.000 C 306.556 222.000,306.400 222.467,306.400 223.800 C 306.400 225.133,306.244 225.600,305.800 225.600 C 305.427 225.600,305.200 225.978,305.200 226.600 C 305.200 227.222,304.973 227.600,304.600 227.600 C 304.222 227.600,304.000 227.981,304.000 228.629 C 304.000 229.709,303.187 230.800,302.383 230.800 C 302.076 230.800,301.977 231.257,302.101 232.100 C 302.287 233.360,301.288 234.406,269.294 266.460 C 251.145 284.644,236.142 299.764,235.954 300.060 C 235.347 301.019,235.577 301.852,236.600 302.400 C 237.150 302.694,237.600 303.175,237.600 303.468 C 237.600 303.760,237.870 304.000,238.200 304.000 C 238.530 304.000,238.800 304.270,238.800 304.600 C 238.800 304.930,239.070 305.200,239.400 305.200 C 239.730 305.200,240.000 305.374,240.000 305.586 C 240.000 306.109,242.269 308.400,242.787 308.400 C 243.014 308.400,243.200 308.670,243.200 309.000 C 243.200 309.330,243.470 309.600,243.800 309.600 C 244.130 309.600,244.400 309.870,244.400 310.200 C 244.400 310.530,244.670 310.800,245.000 310.800 C 245.330 310.800,245.600 310.993,245.600 311.229 C 245.600 311.782,246.618 312.800,247.171 312.800 C 247.407 312.800,247.600 313.070,247.600 313.400 C 247.600 313.730,247.870 314.000,248.200 314.000 C 248.530 314.000,248.800 314.270,248.800 314.600 C 248.800 314.930,249.070 315.200,249.400 315.200 C 249.730 315.200,250.000 315.393,250.000 315.629 C 250.000 316.182,251.018 317.200,251.571 317.200 C 251.807 317.200,252.000 317.470,252.000 317.800 C 252.000 318.130,252.270 318.400,252.600 318.400 C 252.930 318.400,253.200 318.670,253.200 319.000 C 253.200 319.330,253.470 319.600,253.800 319.600 C 254.130 319.600,254.400 319.870,254.400 320.200 C 254.400 320.530,254.670 320.800,255.000 320.800 C 255.330 320.800,255.600 320.993,255.600 321.229 C 255.600 321.782,256.618 322.800,257.171 322.800 C 257.407 322.800,257.600 323.070,257.600 323.400 C 257.600 323.730,257.870 324.000,258.200 324.000 C 258.530 324.000,258.800 324.270,258.800 324.600 C 258.800 324.930,259.070 325.200,259.400 325.200 C 259.730 325.200,260.000 325.393,260.000 325.629 C 260.000 326.182,261.018 327.200,261.571 327.200 C 261.807 327.200,262.000 327.470,262.000 327.800 C 262.000 328.130,262.270 328.400,262.600 328.400 C 262.930 328.400,263.200 328.670,263.200 329.000 C 263.200 329.330,263.470 329.600,263.800 329.600 C 264.130 329.600,264.400 329.793,264.400 330.029 C 264.400 330.582,265.418 331.600,265.971 331.600 C 266.207 331.600,266.400 331.870,266.400 332.200 C 266.400 332.530,266.670 332.800,267.000 332.800 C 267.330 332.800,267.600 333.070,267.600 333.400 C 267.600 333.730,267.870 334.000,268.200 334.000 C 268.530 334.000,268.800 334.270,268.800 334.600 C 268.800 334.930,269.070 335.200,269.400 335.200 C 269.730 335.200,270.000 335.393,270.000 335.629 C 270.000 336.182,271.018 337.200,271.571 337.200 C 271.807 337.200,272.000 337.470,272.000 337.800 C 272.000 338.130,272.270 338.400,272.600 338.400 C 272.930 338.400,273.200 338.670,273.200 339.000 C 273.200 339.330,273.470 339.600,273.800 339.600 C 274.130 339.600,274.400 339.793,274.400 340.029 C 274.400 340.582,275.418 341.600,275.971 341.600 C 276.207 341.600,276.400 341.870,276.400 342.200 C 276.400 342.530,276.670 342.800,277.000 342.800 C 277.330 342.800,277.600 343.070,277.600 343.400 C 277.600 343.730,277.870 344.000,278.200 344.000 C 278.530 344.000,278.800 344.193,278.800 344.429 C 278.800 344.982,279.818 346.000,280.371 346.000 C 280.607 346.000,280.800 346.270,280.800 346.600 C 280.800 346.930,281.070 347.200,281.400 347.200 C 281.730 347.200,282.000 347.470,282.000 347.800 C 282.000 348.130,282.270 348.400,282.600 348.400 C 282.930 348.400,283.200 348.670,283.200 349.000 C 283.200 349.330,283.470 349.600,283.800 349.600 C 284.130 349.600,284.400 349.793,284.400 350.029 C 284.400 350.582,285.418 351.600,285.971 351.600 C 286.207 351.600,286.400 351.870,286.400 352.200 C 286.400 352.530,286.670 352.800,287.000 352.800 C 287.330 352.800,287.600 353.070,287.600 353.400 C 287.600 353.730,287.870 354.000,288.200 354.000 C 288.530 354.000,288.800 354.193,288.800 354.429 C 288.800 354.982,289.818 356.000,290.371 356.000 C 290.607 356.000,290.800 356.270,290.800 356.600 C 290.800 356.930,291.070 357.200,291.400 357.200 C 291.730 357.200,292.000 357.470,292.000 357.800 C 292.000 358.130,292.270 358.400,292.600 358.400 C 292.930 358.400,293.200 358.670,293.200 359.000 C 293.200 359.330,293.481 359.600,293.824 359.600 C 294.167 359.600,294.336 359.780,294.200 360.000 C 294.064 360.220,294.233 360.400,294.576 360.400 C 294.919 360.400,295.200 360.670,295.200 361.000 C 295.200 361.330,295.470 361.600,295.800 361.600 C 296.130 361.600,296.400 361.870,296.400 362.200 C 296.400 362.530,296.670 362.800,297.000 362.800 C 297.330 362.800,297.600 363.070,297.600 363.400 C 297.600 363.730,297.870 364.000,298.200 364.000 C 298.530 364.000,298.800 364.193,298.800 364.429 C 298.800 364.982,299.818 366.000,300.371 366.000 C 300.607 366.000,300.800 366.236,300.800 366.525 C 300.800 366.814,301.440 367.302,302.222 367.609 C 303.422 368.079,303.608 368.313,303.411 369.100 C 303.147 370.149,303.954 371.200,305.021 371.200 C 305.562 371.200,305.651 371.444,305.460 372.400 C 305.280 373.299,305.368 373.600,305.810 373.600 C 306.229 373.600,306.400 374.051,306.400 375.153 C 306.400 376.297,306.585 376.755,307.100 376.889 C 308.067 377.141,307.950 389.600,306.980 389.600 C 306.570 389.600,306.400 390.068,306.400 391.200 C 306.400 392.356,306.233 392.800,305.800 392.800 C 305.397 392.800,305.200 393.203,305.200 394.024 C 305.200 394.697,305.032 395.144,304.828 395.017 C 304.623 394.891,304.342 394.970,304.204 395.193 C 304.063 395.422,304.358 395.614,304.876 395.632 C 305.475 395.652,305.589 395.742,305.200 395.886 C 304.133 396.284,303.200 397.541,303.200 398.583 C 303.200 399.220,302.976 399.600,302.600 399.600 C 302.270 399.600,302.000 399.780,302.000 400.000 C 302.000 400.220,301.730 400.400,301.400 400.400 C 301.070 400.400,300.800 400.670,300.800 401.000 C 300.800 401.330,300.556 401.600,300.258 401.600 C 299.960 401.600,299.544 402.185,299.334 402.900 C 299.010 404.003,298.787 404.182,297.865 404.083 C 296.948 403.984,295.160 405.034,295.500 405.471 C 295.938 406.034,295.449 406.449,294.600 406.236 C 293.783 406.031,293.600 406.131,293.600 406.785 C 293.600 407.502,293.415 407.559,291.808 407.339 C 290.369 407.142,289.966 407.222,289.765 407.747 C 289.569 408.257,288.954 408.400,286.957 408.400 C 285.039 408.400,284.400 408.539,284.400 408.957 C 284.400 409.601,282.759 410.112,281.832 409.757 C 281.484 409.624,281.200 409.252,281.200 408.931 C 281.200 408.463,280.587 408.364,278.100 408.430 C 275.442 408.500,275.008 408.418,275.056 407.856 C 275.093 407.416,274.797 407.200,274.156 407.200 C 273.573 407.200,273.200 406.966,273.200 406.600 C 273.200 406.200,272.800 406.000,272.000 406.000 C 271.200 406.000,270.800 405.800,270.800 405.400 C 270.800 405.027,270.422 404.800,269.800 404.800 C 269.250 404.800,268.800 404.620,268.800 404.400 C 268.800 404.180,268.530 404.000,268.200 404.000 C 267.870 404.000,267.600 403.730,267.600 403.400 C 267.600 403.070,267.330 402.800,267.000 402.800 C 266.670 402.800,266.400 402.530,266.400 402.200 C 266.400 401.870,266.130 401.600,265.800 401.600 C 265.470 401.600,265.200 401.407,265.200 401.171 C 265.200 400.936,264.930 400.473,264.600 400.143 C 264.270 399.813,264.000 399.736,264.000 399.971 C 264.000 400.207,263.809 400.400,263.576 400.400 C 263.343 400.400,263.254 400.236,263.378 400.036 C 263.723 399.478,263.182 398.400,262.557 398.400 C 262.251 398.400,262.000 398.130,262.000 397.800 C 262.000 397.470,261.730 397.200,261.400 397.200 C 261.070 397.200,260.800 397.012,260.800 396.783 C 260.800 396.554,260.414 395.969,259.941 395.483 C 259.469 394.997,259.209 394.825,259.365 395.100 C 259.520 395.375,259.457 395.600,259.224 395.600 C 258.991 395.600,258.800 395.240,258.800 394.800 C 258.800 393.943,258.021 393.662,257.968 394.500 C 257.943 394.900,257.896 394.900,257.735 394.500 C 257.624 394.225,257.268 394.000,256.943 394.000 C 256.618 394.000,256.466 393.817,256.604 393.593 C 256.742 393.370,257.023 393.291,257.228 393.417 C 257.432 393.544,257.600 393.457,257.600 393.224 C 257.600 392.991,257.105 392.797,256.500 392.794 C 255.638 392.789,255.530 392.703,256.000 392.394 C 256.767 391.890,255.758 391.077,254.800 391.428 C 254.336 391.597,254.308 391.539,254.674 391.169 C 255.237 390.603,254.281 389.379,253.603 389.798 C 253.234 390.026,253.021 389.482,253.163 388.670 C 253.194 388.489,253.023 388.462,252.783 388.611 C 252.535 388.764,252.250 388.513,252.124 388.032 C 251.969 387.439,251.761 387.300,251.435 387.571 C 251.107 387.843,250.950 387.729,250.909 387.191 C 250.849 386.391,248.659 384.000,247.986 384.000 C 247.774 384.000,247.600 383.730,247.600 383.400 C 247.600 382.860,246.825 382.586,245.832 382.775 C 245.630 382.814,245.652 382.610,245.882 382.323 C 246.186 381.942,246.079 381.583,245.488 381.000 C 245.042 380.560,244.798 380.413,244.945 380.672 C 245.092 380.932,245.026 381.261,244.797 381.402 C 244.568 381.544,244.406 381.511,244.437 381.330 C 244.628 380.233,244.347 379.535,243.800 379.745 C 243.392 379.901,243.200 379.723,243.200 379.187 C 243.200 378.754,242.930 378.400,242.600 378.400 C 242.270 378.400,242.000 378.111,242.000 377.757 C 242.000 377.350,241.780 377.199,241.400 377.345 C 241.070 377.471,240.800 377.390,240.800 377.164 C 240.800 376.938,240.575 376.888,240.300 377.053 C 239.914 377.285,239.905 377.222,240.260 376.777 C 240.612 376.335,240.589 376.079,240.160 375.684 C 239.729 375.288,239.600 375.282,239.600 375.661 C 239.600 375.931,239.346 375.805,239.035 375.381 C 238.725 374.956,238.573 374.444,238.697 374.243 C 238.822 374.041,238.704 374.012,238.435 374.178 C 238.124 374.371,237.867 374.176,237.728 373.645 C 237.607 373.185,237.348 372.908,237.152 373.030 C 236.955 373.151,236.671 372.924,236.520 372.525 C 236.036 371.250,235.375 370.790,234.796 371.326 C 234.426 371.668,234.355 371.670,234.543 371.336 C 234.910 370.681,234.421 369.600,233.757 369.600 C 233.451 369.600,233.200 369.351,233.200 369.047 C 233.200 368.742,232.822 368.394,232.360 368.274 C 231.898 368.153,231.605 367.907,231.709 367.727 C 231.813 367.547,231.533 367.040,231.087 366.600 C 230.642 366.160,230.398 366.013,230.545 366.272 C 230.692 366.532,230.626 366.861,230.397 367.002 C 230.168 367.144,230.006 367.111,230.037 366.930 C 230.228 365.833,229.947 365.135,229.400 365.345 C 228.992 365.501,228.800 365.323,228.800 364.787 C 228.800 364.203,228.517 363.992,227.700 363.968 C 227.095 363.951,226.825 363.846,227.100 363.735 C 227.796 363.454,227.727 362.800,227.000 362.800 C 226.670 362.800,226.400 362.607,226.400 362.371 C 226.400 361.818,225.382 360.800,224.829 360.800 C 224.593 360.800,224.400 360.530,224.400 360.200 C 224.400 359.870,224.130 359.600,223.800 359.600 C 223.470 359.600,223.200 359.330,223.200 359.000 C 223.200 358.670,222.930 358.400,222.600 358.400 C 222.270 358.400,222.000 358.214,222.000 357.987 C 222.000 357.469,219.709 355.200,219.186 355.200 C 218.974 355.200,218.800 354.930,218.800 354.600 C 218.800 354.270,218.530 354.000,218.200 354.000 C 217.870 354.000,217.600 353.806,217.600 353.569 C 217.600 353.009,215.391 350.800,214.831 350.800 C 214.594 350.800,214.400 350.530,214.400 350.200 C 214.400 349.870,214.130 349.600,213.800 349.600 C 213.470 349.600,213.200 349.330,213.200 349.000 C 213.200 348.670,212.930 348.400,212.600 348.400 C 212.270 348.400,212.000 348.207,212.000 347.971 C 212.000 347.418,210.982 346.400,210.429 346.400 C 210.193 346.400,210.000 346.130,210.000 345.800 C 210.000 345.470,209.730 345.200,209.400 345.200 C 209.070 345.200,208.800 344.930,208.800 344.600 C 208.800 344.270,208.530 344.000,208.200 344.000 C 207.870 344.000,207.600 343.814,207.600 343.587 C 207.600 343.069,205.309 340.800,204.786 340.800 C 204.574 340.800,204.400 340.530,204.400 340.200 C 204.400 339.870,204.130 339.600,203.800 339.600 C 203.470 339.600,203.200 339.406,203.200 339.169 C 203.200 338.218,200.857 336.400,199.631 336.400 C 198.954 336.400,198.400 336.605,198.400 336.855 C 198.400 337.105,186.115 349.601,171.100 364.624 C 156.085 379.647,142.694 393.077,141.342 394.469 C 134.363 401.655,132.513 403.244,131.434 402.973 C 130.643 402.774,130.400 402.864,130.400 403.357 C 130.400 403.710,130.130 404.000,129.800 404.000 C 129.470 404.000,129.200 404.180,129.200 404.400 C 129.200 404.620,128.660 404.800,128.000 404.800 C 127.200 404.800,126.800 405.000,126.800 405.400 C 126.800 405.780,126.417 406.000,125.757 406.000 C 124.995 406.000,124.776 406.161,124.945 406.600 C 125.122 407.062,124.856 407.200,123.787 407.200 C 122.821 407.200,122.400 407.382,122.400 407.800 C 122.400 408.276,121.822 408.400,119.600 408.400 C 117.451 408.400,116.800 408.532,116.800 408.967 C 116.800 409.679,116.188 409.889,114.736 409.676 C 114.111 409.584,113.600 409.260,113.600 408.955 C 113.600 408.535,112.920 408.400,110.800 408.400 C 108.578 408.400,108.000 408.276,108.000 407.800 C 108.000 407.434,107.627 407.200,107.043 407.200 C 106.516 407.200,105.979 406.922,105.848 406.581 C 105.718 406.241,105.383 405.992,105.105 406.029 C 103.819 406.197,102.400 405.960,102.400 405.576 C 102.400 405.343,102.568 405.256,102.772 405.383 C 102.977 405.509,103.258 405.430,103.396 405.207 C 103.542 404.971,103.206 404.800,102.595 404.800 C 101.468 404.800,100.404 403.992,100.394 403.129 C 100.389 402.738,100.286 402.757,100.000 403.200 C 99.701 403.663,99.611 403.676,99.606 403.257 C 99.602 402.932,99.351 402.810,98.979 402.953 C 98.219 403.244,96.400 402.117,96.400 401.354 C 96.400 401.049,96.220 400.800,96.000 400.800 C 95.780 400.800,95.600 400.530,95.600 400.200 C 95.600 399.870,95.774 399.600,95.987 399.600 C 96.201 399.600,96.271 399.330,96.145 399.000 C 96.018 398.670,95.664 398.400,95.357 398.400 C 95.051 398.400,94.800 398.130,94.800 397.800 C 94.800 397.470,94.542 397.200,94.227 397.200 C 93.898 397.200,93.599 396.730,93.527 396.100 C 93.455 395.481,93.181 395.044,92.900 395.100 C 92.589 395.162,92.400 394.747,92.400 394.000 C 92.400 393.340,92.220 392.800,92.000 392.800 C 91.780 392.800,91.600 392.111,91.600 391.268 C 91.600 389.937,91.482 389.741,90.700 389.768 C 90.072 389.790,89.859 389.619,89.995 389.200 C 90.103 388.870,90.249 386.351,90.320 383.602 C 90.419 379.770,90.583 378.529,91.024 378.282 C 91.352 378.099,91.600 377.365,91.600 376.580 C 91.600 375.821,91.780 375.200,92.000 375.200 C 92.220 375.200,92.400 374.660,92.400 374.000 C 92.400 373.200,92.600 372.800,93.000 372.800 C 93.400 372.800,93.600 372.400,93.600 371.600 C 93.600 370.940,93.778 370.400,93.995 370.400 C 94.517 370.400,96.000 369.119,96.000 368.668 C 96.000 368.474,95.750 368.410,95.445 368.527 C 95.048 368.680,94.952 368.507,95.106 367.917 C 95.224 367.464,95.654 367.006,96.061 366.900 C 96.467 366.794,96.800 366.548,96.800 366.353 C 96.800 366.159,97.070 366.000,97.400 366.000 C 97.730 366.000,98.000 365.820,98.000 365.600 C 98.000 365.380,98.270 365.200,98.600 365.200 C 98.930 365.200,99.200 364.930,99.200 364.600 C 99.200 364.270,99.470 364.000,99.800 364.000 C 100.130 364.000,100.400 363.730,100.400 363.400 C 100.400 363.070,100.580 362.800,100.800 362.800 C 101.020 362.800,101.200 362.530,101.200 362.200 C 101.200 361.870,101.470 361.600,101.800 361.600 C 102.130 361.600,102.400 361.330,102.400 361.000 C 102.400 360.670,102.670 360.400,103.000 360.400 C 103.330 360.400,103.600 360.220,103.600 360.000 C 103.600 359.780,103.870 359.600,104.200 359.600 C 104.530 359.600,104.800 359.330,104.800 359.000 C 104.800 358.670,105.070 358.400,105.400 358.400 C 105.730 358.400,106.000 358.130,106.000 357.800 C 106.000 357.470,106.180 357.200,106.400 357.200 C 106.620 357.200,106.800 356.930,106.800 356.600 C 106.800 356.270,107.070 356.000,107.400 356.000 C 107.730 356.000,108.000 355.820,108.000 355.600 C 108.000 355.380,108.270 355.200,108.600 355.200 C 108.930 355.200,109.200 354.930,109.200 354.600 C 109.200 354.270,109.470 354.000,109.800 354.000 C 110.130 354.000,110.400 353.730,110.400 353.400 C 110.400 353.070,110.580 352.800,110.800 352.800 C 111.020 352.800,111.200 352.530,111.200 352.200 C 111.200 351.870,111.470 351.600,111.800 351.600 C 112.130 351.600,112.400 351.420,112.400 351.200 C 112.400 350.980,112.670 350.800,113.000 350.800 C 113.330 350.800,113.600 350.530,113.600 350.200 C 113.600 349.870,113.870 349.600,114.200 349.600 C 114.530 349.600,114.800 349.330,114.800 349.000 C 114.800 348.670,114.980 348.400,115.200 348.400 C 115.420 348.400,115.600 348.130,115.600 347.800 C 115.600 347.470,115.870 347.200,116.200 347.200 C 116.530 347.200,116.800 346.930,116.800 346.600 C 116.800 346.270,117.070 346.000,117.400 346.000 C 117.730 346.000,118.000 345.820,118.000 345.600 C 118.000 345.380,118.270 345.200,118.600 345.200 C 118.930 345.200,119.200 344.930,119.200 344.600 C 119.200 344.270,119.470 344.000,119.800 344.000 C 120.130 344.000,120.400 343.730,120.400 343.400 C 120.400 343.070,120.580 342.800,120.800 342.800 C 121.020 342.800,121.200 342.530,121.200 342.200 C 121.200 341.870,121.470 341.600,121.800 341.600 C 122.130 341.600,122.400 341.420,122.400 341.200 C 122.400 340.980,122.670 340.800,123.000 340.800 C 123.330 340.800,123.600 340.530,123.600 340.200 C 123.600 339.870,123.870 339.600,124.200 339.600 C 124.530 339.600,124.800 339.330,124.800 339.000 C 124.800 338.670,124.980 338.400,125.200 338.400 C 125.420 338.400,125.600 338.130,125.600 337.800 C 125.600 337.470,125.870 337.200,126.200 337.200 C 126.530 337.200,126.800 337.020,126.800 336.800 C 126.800 336.580,127.070 336.400,127.400 336.400 C 127.730 336.400,128.000 336.130,128.000 335.800 C 128.000 335.470,128.270 335.200,128.600 335.200 C 128.930 335.200,129.200 334.930,129.200 334.600 C 129.200 334.270,129.380 334.000,129.600 334.000 C 129.820 334.000,130.000 333.730,130.000 333.400 C 130.000 333.070,130.270 332.800,130.600 332.800 C 130.930 332.800,131.200 332.530,131.200 332.200 C 131.200 331.870,131.470 331.600,131.800 331.600 C 132.130 331.600,132.400 331.420,132.400 331.200 C 132.400 330.980,132.670 330.800,133.000 330.800 C 133.330 330.800,133.600 330.530,133.600 330.200 C 133.600 329.870,133.870 329.600,134.200 329.600 C 134.530 329.600,134.800 329.330,134.800 329.000 C 134.800 328.670,134.980 328.400,135.200 328.400 C 135.420 328.400,135.600 328.130,135.600 327.800 C 135.600 327.470,135.870 327.200,136.200 327.200 C 136.530 327.200,136.800 327.020,136.800 326.800 C 136.800 326.580,137.070 326.400,137.400 326.400 C 137.730 326.400,138.000 326.130,138.000 325.800 C 138.000 325.470,138.270 325.200,138.600 325.200 C 138.930 325.200,139.200 324.930,139.200 324.600 C 139.200 324.270,139.380 324.000,139.600 324.000 C 139.820 324.000,140.000 323.730,140.000 323.400 C 140.000 323.070,140.270 322.800,140.600 322.800 C 140.930 322.800,141.200 322.620,141.200 322.400 C 141.200 322.180,141.470 322.000,141.800 322.000 C 142.130 322.000,142.400 321.730,142.400 321.400 C 142.400 321.070,142.670 320.800,143.000 320.800 C 143.330 320.800,143.600 320.530,143.600 320.200 C 143.600 319.870,143.780 319.600,144.000 319.600 C 144.220 319.600,144.400 319.330,144.400 319.000 C 144.400 318.670,144.670 318.400,145.000 318.400 C 145.330 318.400,145.600 318.130,145.600 317.800 C 145.600 317.470,145.870 317.200,146.200 317.200 C 146.530 317.200,146.800 317.020,146.800 316.800 C 146.800 316.580,147.070 316.400,147.400 316.400 C 147.730 316.400,148.000 316.130,148.000 315.800 C 148.000 315.470,148.270 315.200,148.600 315.200 C 148.930 315.200,149.200 314.930,149.200 314.600 C 149.200 314.270,149.380 314.000,149.600 314.000 C 149.820 314.000,150.000 313.730,150.000 313.400 C 150.000 313.070,150.270 312.800,150.600 312.800 C 150.930 312.800,151.200 312.620,151.200 312.400 C 151.200 312.180,151.470 312.000,151.800 312.000 C 152.130 312.000,152.400 311.730,152.400 311.400 C 152.400 311.070,152.670 310.800,153.000 310.800 C 153.330 310.800,153.600 310.530,153.600 310.200 C 153.600 309.870,153.780 309.600,154.000 309.600 C 154.220 309.600,154.400 309.330,154.400 309.000 C 154.400 308.670,154.670 308.400,155.000 308.400 C 155.330 308.400,155.600 308.220,155.600 308.000 C 155.600 307.780,155.870 307.600,156.200 307.600 C 156.530 307.600,156.800 307.330,156.800 307.000 C 156.800 306.670,157.070 306.400,157.400 306.400 C 157.730 306.400,158.000 306.130,158.000 305.800 C 158.000 305.470,158.270 305.200,158.600 305.200 C 158.930 305.200,159.200 304.930,159.200 304.600 C 159.200 304.270,159.380 304.000,159.600 304.000 C 159.820 304.000,160.000 303.730,160.000 303.400 C 160.000 303.070,160.270 302.800,160.600 302.800 C 160.930 302.800,161.200 302.620,161.200 302.400 C 161.200 302.180,161.470 302.000,161.800 302.000 C 162.130 302.000,162.400 301.730,162.400 301.400 C 162.400 301.070,162.682 300.800,163.027 300.800 C 163.870 300.800,163.646 298.607,162.800 298.582 C 162.470 298.572,162.245 298.347,162.300 298.082 C 162.355 297.817,162.130 297.600,161.800 297.600 C 161.470 297.600,161.200 297.330,161.200 297.000 C 161.200 296.670,160.930 296.400,160.600 296.400 C 160.270 296.400,160.000 296.206,160.000 295.969 C 160.000 295.409,157.791 293.200,157.231 293.200 C 156.994 293.200,156.800 292.930,156.800 292.600 C 156.800 292.270,156.530 292.000,156.200 292.000 C 155.870 292.000,155.600 291.730,155.600 291.400 C 155.600 291.070,155.330 290.800,155.000 290.800 C 154.670 290.800,154.400 290.614,154.400 290.387 C 154.400 289.869,152.109 287.600,151.586 287.600 C 151.374 287.600,151.200 287.330,151.200 287.000 C 151.200 286.670,150.930 286.400,150.600 286.400 C 150.270 286.400,150.000 286.207,150.000 285.971 C 150.000 285.418,149.196 284.629,148.275 284.280 C 147.876 284.129,147.661 283.824,147.798 283.603 C 147.935 283.381,147.767 283.200,147.424 283.200 C 147.081 283.200,146.800 282.930,146.800 282.600 C 146.800 282.270,146.530 282.000,146.200 282.000 C 145.870 282.000,145.600 281.730,145.600 281.400 C 145.600 281.070,145.330 280.800,145.000 280.800 C 144.670 280.800,144.400 280.607,144.400 280.371 C 144.400 279.818,143.382 278.800,142.829 278.800 C 142.593 278.800,142.400 278.530,142.400 278.200 C 142.400 277.870,142.130 277.600,141.800 277.600 C 141.470 277.600,141.200 277.330,141.200 277.000 C 141.200 276.670,140.930 276.400,140.600 276.400 C 140.270 276.400,140.000 276.214,140.000 275.987 C 140.000 275.469,137.709 273.200,137.186 273.200 C 136.974 273.200,136.800 272.930,136.800 272.600 C 136.800 272.270,136.530 272.000,136.200 272.000 C 135.870 272.000,135.600 271.822,135.600 271.605 C 135.600 270.990,134.296 269.617,133.929 269.844 C 133.748 269.956,133.600 269.767,133.600 269.424 C 133.600 269.081,133.330 268.800,133.000 268.800 C 132.670 268.800,132.400 268.530,132.400 268.200 C 132.400 267.870,132.130 267.600,131.800 267.600 C 131.470 267.600,131.200 267.330,131.200 267.000 C 131.200 266.670,130.930 266.400,130.600 266.400 C 130.270 266.400,130.000 266.207,130.000 265.971 C 130.000 265.418,128.982 264.400,128.429 264.400 C 128.193 264.400,128.000 264.130,128.000 263.800 C 128.000 263.470,127.730 263.200,127.400 263.200 C 127.070 263.200,126.800 262.930,126.800 262.600 C 126.800 262.270,126.530 262.000,126.200 262.000 C 125.870 262.000,125.600 261.814,125.600 261.587 C 125.600 261.069,123.309 258.800,122.786 258.800 C 122.574 258.800,122.400 258.530,122.400 258.200 C 122.400 257.870,122.130 257.600,121.800 257.600 C 121.470 257.600,121.200 257.422,121.200 257.205 C 121.200 256.590,119.896 255.217,119.529 255.444 C 119.348 255.556,119.200 255.367,119.200 255.024 C 119.200 254.681,118.930 254.400,118.600 254.400 C 118.270 254.400,118.000 254.130,118.000 253.800 C 118.000 253.470,117.730 253.200,117.400 253.200 C 117.070 253.200,116.800 252.930,116.800 252.600 C 116.800 252.270,116.530 252.000,116.200 252.000 C 115.870 252.000,115.600 251.807,115.600 251.571 C 115.600 251.018,114.582 250.000,114.029 250.000 C 113.793 250.000,113.600 249.730,113.600 249.400 C 113.600 249.070,113.330 248.800,113.000 248.800 C 112.670 248.800,112.400 248.530,112.400 248.200 C 112.400 247.870,112.130 247.600,111.800 247.600 C 111.470 247.600,111.200 247.414,111.200 247.187 C 111.200 246.669,108.909 244.400,108.386 244.400 C 108.174 244.400,108.000 244.130,108.000 243.800 C 108.000 243.470,107.730 243.200,107.400 243.200 C 107.070 243.200,106.800 243.006,106.800 242.769 C 106.800 242.061,104.474 239.956,103.620 239.892 C 103.100 239.852,102.742 239.447,102.582 238.716 C 102.447 238.102,102.081 237.600,101.768 237.600 C 101.456 237.600,101.200 237.407,101.200 237.171 C 101.200 236.936,100.930 236.473,100.600 236.143 C 100.270 235.813,100.000 235.736,100.000 235.971 C 100.000 236.207,99.820 236.400,99.600 236.400 C 99.380 236.400,99.200 235.950,99.200 235.400 C 99.200 234.778,98.973 234.400,98.600 234.400 C 98.270 234.400,98.000 234.130,98.000 233.800 C 98.000 233.470,97.730 233.200,97.400 233.200 C 97.070 233.200,96.800 233.022,96.800 232.805 C 96.800 232.190,95.496 230.817,95.129 231.044 C 94.948 231.156,94.800 231.057,94.800 230.824 C 94.800 230.591,94.432 230.400,93.982 230.400 C 93.264 230.400,93.196 230.229,93.426 229.000 C 93.638 227.871,93.564 227.600,93.045 227.600 C 92.667 227.600,92.400 227.269,92.400 226.800 C 92.400 226.360,92.141 226.000,91.824 226.000 C 91.019 226.000,90.621 225.219,91.155 224.685 C 91.400 224.440,91.579 223.511,91.554 222.620 C 91.528 221.729,91.425 221.315,91.324 221.700 C 91.224 222.085,90.930 222.400,90.671 222.400 C 89.936 222.401,90.290 211.507,91.039 211.080 C 91.372 210.890,91.600 210.117,91.600 209.180 C 91.600 208.311,91.780 207.600,92.000 207.600 C 92.220 207.600,92.400 206.790,92.400 205.800 C 92.400 204.467,92.556 204.000,93.000 204.000 C 93.330 204.000,93.600 203.820,93.600 203.600 C 93.600 203.380,93.884 203.200,94.232 203.200 C 94.727 203.200,94.806 202.938,94.598 201.991 C 94.359 200.902,94.455 200.739,95.566 200.352 C 96.245 200.115,96.800 199.669,96.800 199.361 C 96.800 199.052,97.070 198.800,97.400 198.800 C 97.730 198.800,98.000 198.530,98.000 198.200 C 98.000 197.870,98.270 197.600,98.600 197.600 C 98.930 197.600,99.200 197.420,99.200 197.200 C 99.200 196.980,99.453 196.800,99.763 196.800 C 100.138 196.800,100.252 196.519,100.104 195.955 C 99.904 195.190,100.002 195.137,101.142 195.387 C 102.138 195.606,102.400 195.532,102.400 195.032 C 102.400 194.596,102.773 194.400,103.600 194.400 C 104.400 194.400,104.800 194.200,104.800 193.800 C 104.800 193.427,105.178 193.200,105.800 193.200 C 106.350 193.200,106.800 193.020,106.800 192.800 C 106.800 192.580,107.790 192.400,109.000 192.400 C 110.689 192.400,111.200 192.261,111.200 191.800 C 111.200 191.308,111.892 191.200,115.029 191.200 C 117.898 191.200,119.007 191.350,119.457 191.800 C 119.810 192.153,120.787 192.400,121.829 192.400 C 122.803 192.400,123.600 192.580,123.600 192.800 C 123.600 193.020,124.050 193.200,124.600 193.200 C 125.222 193.200,125.600 193.427,125.600 193.800 C 125.600 194.200,126.000 194.400,126.800 194.400 C 127.641 194.400,128.000 194.594,128.000 195.050 C 128.000 195.559,128.261 195.648,129.200 195.460 C 130.527 195.195,130.993 196.186,129.700 196.524 C 129.269 196.637,129.423 196.725,130.100 196.754 C 130.705 196.779,131.200 196.980,131.200 197.200 C 131.200 197.420,131.470 197.600,131.800 197.600 C 132.130 197.600,132.400 197.870,132.400 198.200 C 132.400 198.530,132.670 198.800,133.000 198.800 C 133.330 198.800,133.600 199.070,133.600 199.400 C 133.600 199.730,133.870 200.000,134.200 200.000 C 134.530 200.000,134.800 200.193,134.800 200.429 C 134.800 200.982,135.818 202.000,136.371 202.000 C 136.607 202.000,136.800 202.270,136.800 202.600 C 136.800 202.930,137.070 203.200,137.400 203.200 C 137.730 203.200,138.000 203.470,138.000 203.800 C 138.000 204.130,138.270 204.400,138.600 204.400 C 138.930 204.400,139.200 204.574,139.200 204.786 C 139.200 205.309,141.469 207.600,141.987 207.600 C 142.214 207.600,142.400 207.870,142.400 208.200 C 142.400 208.530,142.670 208.800,143.000 208.800 C 143.330 208.800,143.600 209.070,143.600 209.400 C 143.600 209.730,143.870 210.000,144.200 210.000 C 144.530 210.000,144.800 210.193,144.800 210.429 C 144.800 210.982,145.818 212.000,146.371 212.000 C 146.607 212.000,146.800 212.270,146.800 212.600 C 146.800 212.930,147.070 213.200,147.400 213.200 C 147.730 213.200,148.000 213.470,148.000 213.800 C 148.000 214.130,148.270 214.400,148.600 214.400 C 148.930 214.400,149.200 214.593,149.200 214.829 C 149.200 215.382,150.218 216.400,150.771 216.400 C 151.007 216.400,151.200 216.670,151.200 217.000 C 151.200 217.330,151.470 217.600,151.800 217.600 C 152.130 217.600,152.400 217.870,152.400 218.200 C 152.400 218.530,152.670 218.800,153.000 218.800 C 153.330 218.800,153.600 218.974,153.600 219.186 C 153.600 219.709,155.869 222.000,156.387 222.000 C 156.614 222.000,156.800 222.270,156.800 222.600 C 156.800 222.930,157.070 223.200,157.400 223.200 C 157.730 223.200,158.000 223.470,158.000 223.800 C 158.000 224.130,158.270 224.400,158.600 224.400 C 158.930 224.400,159.200 224.593,159.200 224.829 C 159.200 225.382,160.218 226.400,160.771 226.400 C 161.007 226.400,161.200 226.670,161.200 227.000 C 161.200 227.330,161.470 227.600,161.800 227.600 C 162.130 227.600,162.400 227.870,162.400 228.200 C 162.400 228.530,162.670 228.800,163.000 228.800 C 163.330 228.800,163.600 228.993,163.600 229.229 C 163.600 229.782,164.618 230.800,165.171 230.800 C 165.407 230.800,165.600 231.070,165.600 231.400 C 165.600 231.730,165.870 232.000,166.200 232.000 C 166.530 232.000,166.800 232.270,166.800 232.600 C 166.800 232.930,167.070 233.200,167.400 233.200 C 167.730 233.200,168.000 233.394,168.000 233.631 C 168.000 234.191,170.209 236.400,170.769 236.400 C 171.006 236.400,171.200 236.670,171.200 237.000 C 171.200 237.330,171.470 237.600,171.800 237.600 C 172.130 237.600,172.400 237.870,172.400 238.200 C 172.400 238.530,172.670 238.800,173.000 238.800 C 173.330 238.800,173.600 238.993,173.600 239.229 C 173.600 239.782,174.618 240.800,175.171 240.800 C 175.407 240.800,175.600 241.070,175.600 241.400 C 175.600 241.730,175.870 242.000,176.200 242.000 C 176.530 242.000,176.800 242.270,176.800 242.600 C 176.800 242.930,177.070 243.200,177.400 243.200 C 177.730 243.200,178.000 243.393,178.000 243.629 C 178.000 244.182,179.018 245.200,179.571 245.200 C 179.807 245.200,180.000 245.470,180.000 245.800 C 180.000 246.130,180.270 246.400,180.600 246.400 C 180.930 246.400,181.200 246.670,181.200 247.000 C 181.200 247.330,181.470 247.600,181.800 247.600 C 182.130 247.600,182.400 247.794,182.400 248.031 C 182.400 248.591,184.609 250.800,185.169 250.800 C 185.406 250.800,185.600 251.070,185.600 251.400 C 185.600 251.730,185.870 252.000,186.200 252.000 C 186.530 252.000,186.800 252.270,186.800 252.600 C 186.800 252.930,187.070 253.200,187.400 253.200 C 187.730 253.200,188.000 253.393,188.000 253.629 C 188.000 254.182,189.018 255.200,189.571 255.200 C 189.807 255.200,190.000 255.470,190.000 255.800 C 190.000 256.130,190.270 256.400,190.600 256.400 C 190.930 256.400,191.200 256.670,191.200 257.000 C 191.200 257.330,191.470 257.600,191.800 257.600 C 192.130 257.600,192.400 257.793,192.400 258.029 C 192.400 258.582,193.418 259.600,193.971 259.600 C 194.207 259.600,194.400 259.870,194.400 260.200 C 194.400 260.530,194.670 260.800,195.000 260.800 C 195.330 260.800,195.600 261.070,195.600 261.400 C 195.600 261.730,195.870 262.000,196.200 262.000 C 196.530 262.000,196.800 262.270,196.800 262.600 C 196.800 262.930,197.070 263.200,197.400 263.200 C 197.730 263.200,197.955 263.425,197.900 263.700 C 197.844 263.981,198.281 264.255,198.900 264.327 C 199.686 264.417,200.000 264.274,200.000 263.827 C 200.000 263.482,200.270 263.200,200.600 263.200 C 200.930 263.200,201.200 262.930,201.200 262.600 C 201.200 262.270,201.470 262.000,201.800 262.000 C 202.130 262.000,202.400 261.730,202.400 261.400 C 202.400 261.070,202.580 260.800,202.800 260.800 C 203.020 260.800,203.200 260.530,203.200 260.200 C 203.200 259.870,203.470 259.600,203.800 259.600 C 204.130 259.600,204.400 259.420,204.400 259.200 C 204.400 258.980,204.670 258.800,205.000 258.800 C 205.330 258.800,205.600 258.530,205.600 258.200 C 205.600 257.870,205.870 257.600,206.200 257.600 C 206.530 257.600,206.800 257.330,206.800 257.000 C 206.800 256.670,206.980 256.400,207.200 256.400 C 207.420 256.400,207.600 256.130,207.600 255.800 C 207.600 255.470,207.870 255.200,208.200 255.200 C 208.530 255.200,208.800 255.020,208.800 254.800 C 208.800 254.580,209.070 254.400,209.400 254.400 C 209.730 254.400,210.000 254.130,210.000 253.800 C 210.000 253.470,210.270 253.200,210.600 253.200 C 210.930 253.200,211.200 252.930,211.200 252.600 C 211.200 252.270,211.380 252.000,211.600 252.000 C 211.820 252.000,212.000 251.730,212.000 251.400 C 212.000 251.070,212.270 250.800,212.600 250.800 C 212.930 250.800,213.200 250.620,213.200 250.400 C 213.200 250.180,213.470 250.000,213.800 250.000 C 214.130 250.000,214.400 249.730,214.400 249.400 C 214.400 249.070,214.670 248.800,215.000 248.800 C 215.330 248.800,215.600 248.530,215.600 248.200 C 215.600 247.870,215.870 247.600,216.200 247.600 C 216.530 247.600,216.800 247.330,216.800 247.000 C 216.800 246.670,216.980 246.400,217.200 246.400 C 217.420 246.400,217.600 246.130,217.600 245.800 C 217.600 245.470,217.870 245.200,218.200 245.200 C 218.530 245.200,218.800 245.020,218.800 244.800 C 218.800 244.580,219.070 244.400,219.400 244.400 C 219.730 244.400,220.000 244.130,220.000 243.800 C 220.000 243.470,220.270 243.200,220.600 243.200 C 220.930 243.200,221.200 242.930,221.200 242.600 C 221.200 242.270,221.380 242.000,221.600 242.000 C 221.820 242.000,222.000 241.730,222.000 241.400 C 222.000 241.070,222.270 240.800,222.600 240.800 C 222.930 240.800,223.200 240.620,223.200 240.400 C 223.200 240.180,223.470 240.000,223.800 240.000 C 224.130 240.000,224.400 239.730,224.400 239.400 C 224.400 239.070,224.670 238.800,225.000 238.800 C 225.330 238.800,225.600 238.530,225.600 238.200 C 225.600 237.870,225.780 237.600,226.000 237.600 C 226.220 237.600,226.400 237.330,226.400 237.000 C 226.400 236.670,226.670 236.400,227.000 236.400 C 227.330 236.400,227.600 236.220,227.600 236.000 C 227.600 235.780,227.870 235.600,228.200 235.600 C 228.530 235.600,228.800 235.330,228.800 235.000 C 228.800 234.670,229.070 234.400,229.400 234.400 C 229.730 234.400,230.000 234.130,230.000 233.800 C 230.000 233.470,230.270 233.200,230.600 233.200 C 230.930 233.200,231.200 232.930,231.200 232.600 C 231.200 232.270,231.380 232.000,231.600 232.000 C 231.820 232.000,232.000 231.730,232.000 231.400 C 232.000 231.070,232.270 230.800,232.600 230.800 C 232.930 230.800,233.200 230.620,233.200 230.400 C 233.200 230.180,233.470 230.000,233.800 230.000 C 234.130 230.000,234.400 229.730,234.400 229.400 C 234.400 229.070,234.670 228.800,235.000 228.800 C 235.330 228.800,235.600 228.530,235.600 228.200 C 235.600 227.870,235.780 227.600,236.000 227.600 C 236.220 227.600,236.400 227.330,236.400 227.000 C 236.400 226.670,236.670 226.400,237.000 226.400 C 237.330 226.400,237.600 226.220,237.600 226.000 C 237.600 225.780,237.870 225.600,238.200 225.600 C 238.530 225.600,238.800 225.330,238.800 225.000 C 238.800 224.670,239.070 224.400,239.400 224.400 C 239.730 224.400,240.000 224.130,240.000 223.800 C 240.000 223.470,240.180 223.200,240.400 223.200 C 240.620 223.200,240.800 222.930,240.800 222.600 C 240.800 222.270,241.070 222.000,241.400 222.000 C 241.730 222.000,242.000 221.820,242.000 221.600 C 242.000 221.380,242.270 221.200,242.600 221.200 C 242.930 221.200,243.200 220.930,243.200 220.600 C 243.200 220.270,243.470 220.000,243.800 220.000 C 244.130 220.000,244.400 219.730,244.400 219.400 C 244.400 219.070,244.670 218.800,245.000 218.800 C 245.330 218.800,245.600 218.530,245.600 218.200 C 245.600 217.870,245.780 217.600,246.000 217.600 C 246.220 217.600,246.400 217.330,246.400 217.000 C 246.400 216.670,246.670 216.400,247.000 216.400 C 247.330 216.400,247.600 216.220,247.600 216.000 C 247.600 215.780,247.870 215.600,248.200 215.600 C 248.530 215.600,248.800 215.330,248.800 215.000 C 248.800 214.670,249.070 214.400,249.400 214.400 C 249.730 214.400,250.000 214.130,250.000 213.800 C 250.000 213.470,250.180 213.200,250.400 213.200 C 250.620 213.200,250.800 212.930,250.800 212.600 C 250.800 212.270,251.070 212.000,251.400 212.000 C 251.730 212.000,252.000 211.820,252.000 211.600 C 252.000 211.380,252.270 211.200,252.600 211.200 C 252.930 211.200,253.200 210.930,253.200 210.600 C 253.200 210.270,253.470 210.000,253.800 210.000 C 254.130 210.000,254.400 209.730,254.400 209.400 C 254.400 209.070,254.670 208.800,255.000 208.800 C 255.330 208.800,255.600 208.607,255.600 208.371 C 255.600 208.136,255.857 207.686,256.171 207.371 C 256.486 207.057,256.936 206.800,257.171 206.800 C 257.407 206.800,257.600 206.530,257.600 206.200 C 257.600 205.870,257.870 205.600,258.200 205.600 C 258.530 205.600,258.800 205.330,258.800 205.000 C 258.800 204.670,259.070 204.400,259.400 204.400 C 259.730 204.400,260.000 204.130,260.000 203.800 C 260.000 203.470,260.180 203.200,260.400 203.200 C 260.620 203.200,260.800 202.930,260.800 202.600 C 260.800 202.270,261.070 202.000,261.400 202.000 C 261.730 202.000,262.000 201.820,262.000 201.600 C 262.000 201.380,262.270 201.200,262.600 201.200 C 262.930 201.200,263.200 200.930,263.200 200.600 C 263.200 200.270,263.470 200.000,263.800 200.000 C 264.130 200.000,264.400 199.730,264.400 199.400 C 264.400 199.070,264.580 198.800,264.800 198.800 C 265.020 198.800,265.200 198.530,265.200 198.200 C 265.200 197.870,265.380 197.600,265.600 197.600 C 265.820 197.600,266.000 197.341,266.000 197.024 C 266.000 196.170,266.750 195.861,267.438 196.432 C 267.940 196.848,268.236 196.720,269.198 195.666 C 269.834 194.970,270.725 194.400,271.177 194.400 C 271.642 194.400,272.000 194.139,272.000 193.800 C 272.000 193.467,272.356 193.200,272.800 193.200 C 273.240 193.200,273.600 192.941,273.600 192.624 C 273.600 191.819,274.381 191.421,274.915 191.955 C 275.492 192.532,278.543 192.556,278.188 191.981 C 277.649 191.108,278.329 190.334,279.218 190.810 C 279.713 191.075,281.571 191.203,283.825 191.127 " stroke="none" fill="#fc8c34" fill-rule="evenodd"></path><path id="path1" d="M57.200 1.167 C 57.200 1.658,57.458 2.000,57.829 2.000 C 58.202 2.000,58.406 1.728,58.329 1.333 C 58.135 0.330,57.200 0.192,57.200 1.167 M196.800 1.149 C 196.800 2.124,197.304 2.489,198.184 2.151 C 199.109 1.796,198.769 0.625,197.696 0.472 C 197.023 0.376,196.800 0.544,196.800 1.149 M355.056 0.678 C 354.578 1.156,354.798 2.000,355.400 2.000 C 355.730 2.000,356.000 1.741,356.000 1.424 C 356.000 0.755,355.429 0.304,355.056 0.678 M55.000 2.000 C 54.665 2.542,55.117 3.200,55.824 3.200 C 56.141 3.200,56.400 2.840,56.400 2.400 C 56.400 1.572,55.435 1.296,55.000 2.000 M71.200 3.400 C 71.200 3.730,71.470 4.000,71.800 4.000 C 72.130 4.000,72.400 3.730,72.400 3.400 C 72.400 3.070,72.130 2.800,71.800 2.800 C 71.470 2.800,71.200 3.070,71.200 3.400 M185.800 3.200 C 185.465 3.742,185.917 4.400,186.624 4.400 C 186.941 4.400,187.200 4.040,187.200 3.600 C 187.200 2.772,186.235 2.496,185.800 3.200 M362.800 3.367 C 362.800 3.715,363.085 4.000,363.433 4.000 C 364.140 4.000,364.017 3.139,363.275 2.892 C 363.014 2.805,362.800 3.018,362.800 3.367 M181.200 4.400 C 181.200 4.620,180.630 4.800,179.933 4.800 C 178.193 4.800,178.622 5.038,180.900 5.336 C 182.611 5.560,182.800 5.506,182.800 4.792 C 182.800 4.267,182.531 4.000,182.000 4.000 C 181.560 4.000,181.200 4.180,181.200 4.400 M168.076 9.100 C 168.150 9.485,168.476 9.800,168.800 9.800 C 169.124 9.800,169.450 9.485,169.524 9.100 C 169.618 8.609,169.402 8.400,168.800 8.400 C 168.198 8.400,167.982 8.609,168.076 9.100 M162.529 11.040 C 162.277 11.698,163.111 12.502,163.681 12.150 C 163.856 12.042,164.000 11.603,164.000 11.176 C 164.000 10.240,162.876 10.137,162.529 11.040 M385.752 20.981 C 385.629 21.300,385.641 21.742,385.777 21.963 C 386.164 22.589,387.200 22.002,387.200 21.157 C 387.200 20.270,386.077 20.133,385.752 20.981 M141.455 22.200 C 141.315 22.565,141.455 22.800,141.813 22.800 C 142.136 22.800,142.400 22.530,142.400 22.200 C 142.400 21.870,142.239 21.600,142.043 21.600 C 141.846 21.600,141.582 21.870,141.455 22.200 M93.467 26.267 C 92.916 26.817,93.229 27.600,94.000 27.600 C 94.533 27.600,94.800 27.333,94.800 26.800 C 94.800 26.029,94.017 25.716,93.467 26.267 M134.800 26.800 C 134.800 27.402,135.009 27.618,135.500 27.524 C 135.885 27.450,136.200 27.124,136.200 26.800 C 136.200 26.476,135.885 26.150,135.500 26.076 C 135.009 25.982,134.800 26.198,134.800 26.800 M390.400 28.967 C 390.400 29.315,390.685 29.600,391.033 29.600 C 391.382 29.600,391.595 29.386,391.508 29.125 C 391.261 28.383,390.400 28.260,390.400 28.967 M129.681 30.902 C 129.308 31.352,129.287 31.607,129.607 31.804 C 130.199 32.170,130.502 31.823,130.335 30.969 C 130.213 30.344,130.149 30.337,129.681 30.902 M391.467 30.667 C 390.916 31.217,391.229 32.000,392.000 32.000 C 392.533 32.000,392.800 31.733,392.800 31.200 C 392.800 30.429,392.017 30.116,391.467 30.667 M393.012 34.117 C 392.841 34.512,392.813 34.947,392.951 35.084 C 393.357 35.490,393.684 34.920,393.497 34.131 C 393.332 33.433,393.310 33.432,393.012 34.117 M195.468 39.066 C 194.122 40.411,193.522 40.400,268.829 40.400 C 338.737 40.400,342.452 40.365,342.324 39.700 C 342.185 38.979,196.185 38.348,195.468 39.066 M189.839 40.294 C 189.390 40.743,189.599 41.600,190.157 41.600 C 190.913 41.600,191.282 40.517,190.614 40.261 C 190.319 40.148,189.971 40.163,189.839 40.294 M187.600 42.000 C 187.600 42.220,187.870 42.400,188.200 42.400 C 188.530 42.400,188.800 42.220,188.800 42.000 C 188.800 41.780,188.530 41.600,188.200 41.600 C 187.870 41.600,187.600 41.780,187.600 42.000 M395.067 43.867 C 394.563 44.370,394.800 45.600,395.400 45.600 C 395.773 45.600,396.000 45.222,396.000 44.600 C 396.000 43.629,395.611 43.323,395.067 43.867 M182.278 47.056 C 181.958 47.375,182.319 48.000,182.824 48.000 C 183.031 48.000,183.200 47.730,183.200 47.400 C 183.200 46.781,182.728 46.605,182.278 47.056 M181.055 49.800 C 181.182 50.130,181.446 50.400,181.643 50.400 C 181.839 50.400,182.000 50.130,182.000 49.800 C 182.000 49.470,181.736 49.200,181.413 49.200 C 181.055 49.200,180.915 49.435,181.055 49.800 M356.400 52.800 C 356.400 53.402,356.609 53.618,357.100 53.524 C 357.485 53.450,357.800 53.124,357.800 52.800 C 357.800 52.476,357.485 52.150,357.100 52.076 C 356.609 51.982,356.400 52.198,356.400 52.800 M179.803 55.672 C 179.237 57.994,179.784 83.800,180.400 83.800 C 181.206 83.800,181.320 55.173,180.515 54.905 C 180.248 54.816,179.928 55.161,179.803 55.672 M1.688 59.048 C 1.628 59.768,1.810 60.000,2.432 60.000 C 3.049 60.000,3.224 59.783,3.128 59.136 C 2.948 57.919,1.787 57.848,1.688 59.048 M1.778 62.435 C 1.366 63.102,2.293 63.867,2.845 63.315 C 3.307 62.853,3.018 62.000,2.400 62.000 C 2.206 62.000,1.926 62.196,1.778 62.435 M356.400 85.800 C 356.400 86.593,356.576 86.825,357.100 86.724 C 357.485 86.650,357.800 86.234,357.800 85.800 C 357.800 85.366,357.485 84.950,357.100 84.876 C 356.576 84.775,356.400 85.007,356.400 85.800 M181.075 88.258 C 180.509 88.825,180.829 89.600,181.629 89.600 C 182.189 89.600,182.417 89.383,182.329 88.933 C 182.187 88.197,181.504 87.830,181.075 88.258 M181.870 90.961 C 181.619 91.615,181.914 92.000,182.667 92.000 C 182.960 92.000,183.200 91.640,183.200 91.200 C 183.200 90.290,182.197 90.110,181.870 90.961 M30.680 92.253 C 30.052 92.881,30.451 93.600,31.429 93.600 C 32.192 93.600,32.424 93.420,32.325 92.905 C 32.185 92.176,31.162 91.771,30.680 92.253 M353.400 93.200 C 353.536 93.420,353.277 93.600,352.824 93.600 C 352.267 93.600,352.000 93.859,352.000 94.400 C 352.000 95.552,353.147 95.391,353.610 94.174 C 354.098 92.889,354.096 92.800,353.576 92.800 C 353.343 92.800,353.264 92.980,353.400 93.200 M193.276 98.700 C 193.361 99.142,193.776 99.400,194.400 99.400 C 195.024 99.400,195.439 99.142,195.524 98.700 C 195.629 98.153,195.383 98.000,194.400 98.000 C 193.417 98.000,193.171 98.153,193.276 98.700 M342.800 98.600 C 342.800 98.930,342.875 99.200,342.967 99.200 C 343.059 99.200,343.419 99.309,343.767 99.443 C 344.221 99.617,344.400 99.447,344.400 98.843 C 344.400 98.267,344.147 98.000,343.600 98.000 C 343.156 98.000,342.800 98.267,342.800 98.600 M32.500 127.882 C 31.369 128.100,31.241 129.600,32.353 129.600 C 32.839 129.600,33.175 129.245,33.298 128.600 C 33.403 128.050,33.469 127.625,33.445 127.654 C 33.420 127.684,32.995 127.787,32.500 127.882 M28.484 133.134 C 28.660 134.044,29.600 134.184,29.600 133.300 C 29.600 132.876,29.324 132.533,28.984 132.533 C 28.644 132.533,28.419 132.803,28.484 133.134 M21.875 142.658 C 21.325 143.208,21.611 144.057,22.300 143.924 C 22.685 143.850,23.000 143.537,23.000 143.228 C 23.000 142.596,22.294 142.239,21.875 142.658 M11.875 162.658 C 11.309 163.225,11.629 164.000,12.429 164.000 C 12.989 164.000,13.217 163.783,13.129 163.333 C 12.987 162.597,12.304 162.230,11.875 162.658 M8.400 171.971 C 8.400 172.543,8.657 172.800,9.229 172.800 C 9.802 172.800,10.017 172.585,9.925 172.105 C 9.724 171.062,8.400 170.946,8.400 171.971 M7.329 175.040 C 7.046 175.778,8.014 176.546,8.550 176.010 C 8.986 175.574,8.586 174.400,8.000 174.400 C 7.766 174.400,7.464 174.688,7.329 175.040 M4.733 185.163 C 4.660 186.683,4.735 187.842,4.900 187.740 C 5.065 187.637,5.200 186.774,5.200 185.823 C 5.200 184.429,5.355 184.053,6.002 183.884 C 6.994 183.624,6.655 182.400,5.590 182.400 C 4.974 182.400,4.846 182.812,4.733 185.163 M278.149 190.988 C 278.028 191.303,278.046 191.750,278.188 191.981 C 278.622 192.683,279.600 192.448,279.600 191.643 C 279.600 190.711,278.454 190.193,278.149 190.988 M286.788 191.216 C 286.273 191.541,286.275 191.589,286.800 191.600 C 287.333 191.611,287.333 191.655,286.800 192.000 C 286.380 192.271,286.354 192.390,286.713 192.394 C 287.215 192.400,287.855 191.322,287.538 191.004 C 287.449 190.916,287.112 191.011,286.788 191.216 M273.875 191.858 C 273.309 192.425,273.629 193.200,274.429 193.200 C 274.989 193.200,275.217 192.983,275.129 192.533 C 274.987 191.797,274.304 191.430,273.875 191.858 M3.300 193.465 C 2.597 193.749,2.675 194.800,3.400 194.800 C 3.733 194.800,4.000 194.444,4.000 194.000 C 4.000 193.560,3.955 193.214,3.900 193.232 C 3.845 193.249,3.575 193.354,3.300 193.465 M100.071 195.821 C 100.252 196.690,100.961 196.743,101.124 195.900 C 101.208 195.462,101.012 195.200,100.600 195.200 C 100.216 195.200,99.995 195.459,100.071 195.821 M129.467 195.467 C 129.006 195.927,129.175 196.400,129.800 196.400 C 130.130 196.400,130.400 196.130,130.400 195.800 C 130.400 195.175,129.927 195.006,129.467 195.467 M266.275 196.258 C 265.709 196.825,266.029 197.600,266.829 197.600 C 267.389 197.600,267.617 197.383,267.529 196.933 C 267.387 196.197,266.704 195.830,266.275 196.258 M94.667 200.667 C 94.195 201.139,94.383 202.000,94.957 202.000 C 95.422 202.000,96.000 201.206,96.000 200.567 C 96.000 200.298,94.958 200.375,94.667 200.667 M1.757 203.700 C 1.788 204.925,1.968 205.400,2.400 205.400 C 3.189 205.400,3.468 202.816,2.730 202.348 C 1.831 201.778,1.712 201.943,1.757 203.700 M303.455 202.600 C 303.582 202.930,303.846 203.200,304.043 203.200 C 304.239 203.200,304.400 202.930,304.400 202.600 C 304.400 202.270,304.136 202.000,303.813 202.000 C 303.455 202.000,303.315 202.235,303.455 202.600 M92.400 204.833 C 92.400 205.808,93.335 205.670,93.529 204.667 C 93.606 204.272,93.402 204.000,93.029 204.000 C 92.658 204.000,92.400 204.342,92.400 204.833 M305.200 206.800 C 305.200 207.333,305.467 207.600,306.000 207.600 C 306.533 207.600,306.800 207.333,306.800 206.800 C 306.800 206.267,306.533 206.000,306.000 206.000 C 305.467 206.000,305.200 206.267,305.200 206.800 M306.534 209.827 C 306.201 210.696,307.047 211.513,307.653 210.907 C 308.165 210.395,307.848 209.200,307.200 209.200 C 306.966 209.200,306.667 209.482,306.534 209.827 M90.000 221.800 C 90.000 222.130,90.270 222.400,90.600 222.400 C 90.930 222.400,91.200 222.130,91.200 221.800 C 91.200 221.470,90.930 221.200,90.600 221.200 C 90.270 221.200,90.000 221.470,90.000 221.800 M91.000 224.800 C 90.665 225.342,91.117 226.000,91.824 226.000 C 92.141 226.000,92.400 225.640,92.400 225.200 C 92.400 224.372,91.435 224.096,91.000 224.800 M93.475 229.058 C 92.909 229.625,93.229 230.400,94.029 230.400 C 94.589 230.400,94.817 230.183,94.729 229.733 C 94.587 228.997,93.904 228.630,93.475 229.058 M300.100 233.448 C 299.385 234.232,298.800 235.038,298.800 235.237 C 298.800 235.437,298.620 235.600,298.400 235.600 C 298.180 235.600,297.280 236.320,296.400 237.200 C 295.520 238.080,294.601 238.800,294.357 238.800 C 294.114 238.800,294.018 239.070,294.145 239.400 C 294.285 239.765,294.145 240.000,293.787 240.000 C 293.464 240.000,293.200 240.180,293.200 240.400 C 293.200 240.620,292.930 240.800,292.600 240.800 C 292.270 240.800,292.000 240.980,292.000 241.200 C 292.000 241.420,291.640 241.960,291.200 242.400 C 290.760 242.840,290.220 243.200,290.000 243.200 C 289.780 243.200,289.600 243.393,289.600 243.629 C 289.600 243.864,289.343 244.314,289.029 244.629 C 288.714 244.943,288.264 245.200,288.029 245.200 C 287.793 245.200,287.600 245.380,287.600 245.600 C 287.600 245.820,286.880 246.720,286.000 247.600 C 285.120 248.480,284.400 249.380,284.400 249.600 C 284.400 249.820,284.199 250.000,283.953 250.000 C 283.707 250.000,282.808 250.720,281.954 251.600 C 281.100 252.480,280.221 253.200,280.000 253.200 C 279.780 253.200,279.600 253.393,279.600 253.629 C 279.600 253.864,279.343 254.314,279.029 254.629 C 278.714 254.943,278.264 255.200,278.029 255.200 C 277.793 255.200,277.600 255.380,277.600 255.600 C 277.600 255.820,277.240 256.360,276.800 256.800 C 276.360 257.240,275.820 257.600,275.600 257.600 C 275.380 257.600,275.200 257.793,275.200 258.029 C 275.200 258.264,274.943 258.714,274.629 259.029 C 274.314 259.343,273.864 259.600,273.629 259.600 C 273.393 259.600,273.198 259.825,273.196 260.100 C 273.194 260.375,272.476 261.230,271.600 262.000 C 270.724 262.770,270.006 263.625,270.004 263.900 C 270.002 264.175,269.799 264.400,269.553 264.400 C 269.307 264.400,268.408 265.120,267.554 266.000 C 266.700 266.880,265.810 267.600,265.577 267.600 C 265.344 267.600,265.244 267.748,265.356 267.929 C 265.583 268.296,264.210 269.600,263.595 269.600 C 263.378 269.600,263.200 269.780,263.200 270.000 C 263.200 270.220,262.840 270.760,262.400 271.200 C 261.960 271.640,261.420 272.000,261.200 272.000 C 260.980 272.000,260.800 272.193,260.800 272.429 C 260.800 272.664,260.543 273.114,260.229 273.429 C 259.914 273.743,259.464 274.000,259.229 274.000 C 258.993 274.000,258.800 274.180,258.800 274.400 C 258.800 274.621,258.080 275.500,257.200 276.354 C 256.320 277.208,255.600 278.107,255.600 278.353 C 255.600 278.599,255.399 278.800,255.153 278.800 C 254.907 278.800,254.008 279.520,253.154 280.400 C 252.300 281.280,251.410 282.000,251.177 282.000 C 250.944 282.000,250.844 282.148,250.956 282.329 C 251.183 282.696,249.810 284.000,249.195 284.000 C 248.978 284.000,248.800 284.180,248.800 284.400 C 248.800 284.620,248.440 285.160,248.000 285.600 C 247.560 286.040,247.020 286.400,246.800 286.400 C 246.580 286.400,246.400 286.593,246.400 286.829 C 246.400 287.064,246.143 287.514,245.829 287.829 C 245.514 288.143,245.064 288.400,244.829 288.400 C 244.593 288.400,244.400 288.596,244.400 288.836 C 244.400 289.355,237.288 296.400,236.764 296.400 C 236.564 296.400,236.400 296.593,236.400 296.829 C 236.400 297.064,236.143 297.514,235.829 297.829 C 235.514 298.143,235.064 298.400,234.829 298.400 C 234.253 298.400,234.280 300.278,234.861 300.638 C 235.115 300.794,235.569 300.581,235.874 300.161 C 236.178 299.742,251.273 284.525,269.418 266.344 C 293.530 242.184,302.342 233.114,302.161 232.644 C 301.814 231.738,301.572 231.832,300.100 233.448 M196.800 336.800 C 196.800 337.020,196.530 337.200,196.200 337.200 C 195.870 337.200,195.600 337.470,195.600 337.800 C 195.600 338.130,195.330 338.400,195.000 338.400 C 194.670 338.400,194.400 338.670,194.400 339.000 C 194.400 339.330,194.130 339.600,193.800 339.600 C 193.470 339.600,193.200 339.793,193.200 340.029 C 193.200 340.582,192.182 341.600,191.629 341.600 C 191.393 341.600,191.200 341.780,191.200 342.000 C 191.200 342.221,190.480 343.100,189.600 343.954 C 188.720 344.808,188.000 345.707,188.000 345.953 C 188.000 346.199,187.820 346.400,187.600 346.400 C 187.380 346.400,186.480 347.120,185.600 348.000 C 184.720 348.880,183.820 349.600,183.600 349.600 C 183.380 349.600,183.200 349.793,183.200 350.029 C 183.200 350.264,182.943 350.714,182.629 351.029 C 182.314 351.343,181.864 351.600,181.629 351.600 C 181.393 351.600,181.200 351.870,181.200 352.200 C 181.200 352.530,180.930 352.800,180.600 352.800 C 180.270 352.800,180.000 353.070,180.000 353.400 C 180.000 353.730,179.730 354.000,179.400 354.000 C 179.070 354.000,178.800 354.178,178.800 354.395 C 178.800 355.010,177.496 356.383,177.129 356.156 C 176.948 356.044,176.800 356.144,176.800 356.377 C 176.800 356.610,176.080 357.500,175.200 358.354 C 174.320 359.208,173.600 360.107,173.600 360.353 C 173.600 360.599,173.420 360.800,173.200 360.800 C 172.980 360.800,172.080 361.520,171.200 362.400 C 170.320 363.280,169.409 364.000,169.176 364.000 C 168.943 364.000,168.844 364.148,168.956 364.329 C 169.183 364.696,167.810 366.000,167.195 366.000 C 166.978 366.000,166.800 366.270,166.800 366.600 C 166.800 366.930,166.530 367.200,166.200 367.200 C 165.870 367.200,165.600 367.470,165.600 367.800 C 165.600 368.130,165.330 368.400,165.000 368.400 C 164.670 368.400,164.400 368.578,164.400 368.795 C 164.400 369.410,163.096 370.783,162.729 370.556 C 162.548 370.444,162.400 370.543,162.400 370.776 C 162.400 371.009,161.680 371.920,160.800 372.800 C 159.920 373.680,159.200 374.580,159.200 374.800 C 159.200 375.020,159.020 375.200,158.800 375.200 C 158.580 375.200,157.680 375.920,156.800 376.800 C 155.920 377.680,155.009 378.400,154.776 378.400 C 154.543 378.400,154.444 378.548,154.556 378.729 C 154.783 379.096,153.410 380.400,152.795 380.400 C 152.578 380.400,152.400 380.670,152.400 381.000 C 152.400 381.330,152.130 381.600,151.800 381.600 C 151.470 381.600,151.200 381.870,151.200 382.200 C 151.200 382.530,150.930 382.800,150.600 382.800 C 150.270 382.800,150.000 382.978,150.000 383.195 C 150.000 383.810,148.696 385.183,148.329 384.956 C 148.148 384.844,148.000 384.943,148.000 385.176 C 148.000 385.409,147.280 386.320,146.400 387.200 C 145.520 388.080,144.800 388.980,144.800 389.200 C 144.800 389.420,144.599 389.600,144.353 389.600 C 144.107 389.600,143.208 390.320,142.354 391.200 C 141.500 392.080,140.621 392.800,140.400 392.800 C 140.180 392.800,140.000 392.993,140.000 393.229 C 140.000 393.782,138.982 394.800,138.429 394.800 C 138.193 394.800,138.000 395.070,138.000 395.400 C 138.000 395.730,137.730 396.000,137.400 396.000 C 137.070 396.000,136.800 396.270,136.800 396.600 C 136.800 396.930,136.530 397.200,136.200 397.200 C 135.870 397.200,135.600 397.378,135.600 397.595 C 135.600 398.210,134.296 399.583,133.929 399.356 C 133.748 399.244,133.600 399.354,133.600 399.599 C 133.600 399.844,133.039 400.558,132.353 401.184 C 131.198 402.239,131.065 403.200,132.074 403.200 C 132.502 403.200,136.742 399.206,141.342 394.469 C 142.694 393.077,156.085 379.647,171.100 364.624 C 197.875 337.836,199.223 336.400,197.600 336.400 C 197.160 336.400,196.800 336.580,196.800 336.800 M95.326 367.500 C 95.189 367.885,95.020 368.309,94.950 368.442 C 94.881 368.575,95.269 368.599,95.812 368.496 C 96.446 368.374,96.800 368.037,96.800 367.553 C 96.800 366.604,95.659 366.563,95.326 367.500 M302.076 368.531 C 302.220 369.539,303.329 369.709,303.514 368.752 C 303.588 368.365,303.298 368.014,302.796 367.883 C 302.108 367.703,301.975 367.822,302.076 368.531 M304.000 372.000 C 304.000 372.533,304.267 372.800,304.800 372.800 C 305.333 372.800,305.600 372.533,305.600 372.000 C 305.600 371.467,305.333 371.200,304.800 371.200 C 304.267 371.200,304.000 371.467,304.000 372.000 M305.357 374.233 C 305.491 374.581,305.600 374.941,305.600 375.033 C 305.600 375.125,305.780 375.200,306.000 375.200 C 306.220 375.200,306.400 374.840,306.400 374.400 C 306.400 373.932,306.133 373.600,305.757 373.600 C 305.335 373.600,305.198 373.818,305.357 374.233 M306.400 377.376 C 306.400 378.198,307.228 378.602,307.618 377.970 C 307.799 377.678,307.858 377.295,307.750 377.119 C 307.414 376.575,306.400 376.768,306.400 377.376 M89.850 389.015 C 89.592 389.687,90.502 390.231,91.181 389.812 C 91.411 389.669,91.600 389.293,91.600 388.976 C 91.600 388.205,90.148 388.237,89.850 389.015 M256.612 393.581 C 256.469 393.811,256.618 394.000,256.943 394.000 C 257.268 394.000,257.624 394.225,257.735 394.500 C 257.862 394.814,257.949 394.832,257.968 394.549 C 258.017 393.855,256.924 393.075,256.612 393.581 M302.000 399.000 C 302.000 399.330,302.270 399.600,302.600 399.600 C 302.930 399.600,303.200 399.330,303.200 399.000 C 303.200 398.670,302.930 398.400,302.600 398.400 C 302.270 398.400,302.000 398.670,302.000 399.000 M96.100 399.495 C 95.507 399.699,95.423 400.800,96.000 400.800 C 96.220 400.800,96.400 401.049,96.400 401.354 C 96.400 402.236,98.388 403.374,98.943 402.810 C 99.287 402.461,99.226 402.218,98.700 401.829 C 98.315 401.545,98.000 401.107,98.000 400.856 C 98.000 400.605,97.743 400.400,97.429 400.400 C 97.115 400.400,96.800 400.158,96.729 399.861 C 96.658 399.565,96.375 399.400,96.100 399.495 M297.676 403.500 C 297.750 403.885,298.076 404.200,298.400 404.200 C 298.724 404.200,299.050 403.885,299.124 403.500 C 299.218 403.009,299.002 402.800,298.400 402.800 C 297.798 402.800,297.582 403.009,297.676 403.500 M294.449 405.161 C 293.820 405.560,294.180 406.400,294.981 406.400 C 295.566 406.400,296.087 405.421,295.706 405.039 C 295.385 404.718,295.105 404.746,294.449 405.161 M104.533 406.686 C 104.533 406.969,104.754 407.200,105.024 407.200 C 105.294 407.200,105.603 406.969,105.712 406.686 C 105.825 406.390,105.617 406.171,105.221 406.171 C 104.843 406.171,104.533 406.403,104.533 406.686 M292.200 406.400 C 291.865 406.942,292.317 407.600,293.024 407.600 C 293.341 407.600,293.600 407.240,293.600 406.800 C 293.600 405.972,292.635 405.696,292.200 406.400 M275.000 407.600 C 274.864 407.820,274.859 408.172,274.989 408.383 C 275.318 408.915,276.400 408.435,276.400 407.757 C 276.400 407.118,275.370 407.002,275.000 407.600 M113.600 408.955 C 113.600 409.500,115.429 409.990,116.336 409.688 C 117.523 409.292,116.736 408.400,115.200 408.400 C 114.103 408.400,113.600 408.574,113.600 408.955 M281.200 408.957 C 281.200 409.692,282.226 410.059,283.432 409.756 C 285.058 409.348,284.616 408.400,282.800 408.400 C 281.699 408.400,281.200 408.574,281.200 408.957 M1.775 432.921 C 1.366 433.987,1.760 435.800,2.400 435.800 C 3.243 435.800,3.418 433.479,2.625 432.821 C 2.119 432.401,1.968 432.418,1.775 432.921 M394.952 435.781 C 394.676 436.499,395.123 437.295,395.628 436.983 C 396.135 436.670,396.101 435.200,395.587 435.200 C 395.361 435.200,395.075 435.461,394.952 435.781 M2.800 441.829 C 2.800 442.202,3.072 442.406,3.467 442.329 C 4.470 442.135,4.608 441.200,3.633 441.200 C 3.142 441.200,2.800 441.458,2.800 441.829 M392.871 446.267 C 392.942 446.634,393.211 447.004,393.469 447.090 C 393.767 447.189,393.859 446.946,393.722 446.423 C 393.466 445.445,392.683 445.302,392.871 446.267 M4.893 447.200 C 4.893 447.970,4.975 448.285,5.076 447.900 C 5.176 447.515,5.176 446.885,5.076 446.500 C 4.975 446.115,4.893 446.430,4.893 447.200 M391.275 449.495 C 391.476 450.538,392.800 450.654,392.800 449.629 C 392.800 449.057,392.543 448.800,391.971 448.800 C 391.398 448.800,391.183 449.015,391.275 449.495 M390.400 451.800 C 390.400 452.130,390.670 452.400,391.000 452.400 C 391.330 452.400,391.600 452.130,391.600 451.800 C 391.600 451.470,391.330 451.200,391.000 451.200 C 390.670 451.200,390.400 451.470,390.400 451.800 M385.675 459.495 C 385.876 460.538,387.200 460.654,387.200 459.629 C 387.200 459.057,386.943 458.800,386.371 458.800 C 385.798 458.800,385.583 459.015,385.675 459.495 M11.600 460.814 C 11.600 461.508,11.720 461.564,12.411 461.194 C 13.277 460.731,13.133 460.000,12.176 460.000 C 11.859 460.000,11.600 460.366,11.600 460.814 M22.100 469.887 C 21.293 470.177,21.527 471.200,22.400 471.200 C 22.840 471.200,23.200 470.941,23.200 470.624 C 23.200 469.928,22.777 469.645,22.100 469.887 M25.200 473.000 C 25.200 473.330,25.470 473.600,25.800 473.600 C 26.130 473.600,26.400 473.330,26.400 473.000 C 26.400 472.670,26.130 472.400,25.800 472.400 C 25.470 472.400,25.200 472.670,25.200 473.000 M34.049 476.762 C 33.324 477.220,33.831 478.000,34.853 478.000 C 35.390 478.000,35.616 477.778,35.529 477.333 C 35.372 476.520,34.787 476.295,34.049 476.762 M362.800 477.433 C 362.800 478.140,363.661 478.017,363.908 477.275 C 363.995 477.014,363.782 476.800,363.433 476.800 C 363.085 476.800,362.800 477.085,362.800 477.433 M37.378 478.035 C 36.966 478.702,37.893 479.467,38.445 478.915 C 38.907 478.453,38.618 477.600,38.000 477.600 C 37.806 477.600,37.526 477.796,37.378 478.035 M359.455 478.600 C 359.582 478.930,359.827 479.200,360.000 479.200 C 360.173 479.200,360.418 478.930,360.545 478.600 C 360.700 478.194,360.524 478.000,360.000 478.000 C 359.476 478.000,359.300 478.194,359.455 478.600 M41.778 479.235 C 41.429 479.800,42.200 480.571,42.765 480.222 C 43.004 480.074,43.200 479.693,43.200 479.376 C 43.200 478.703,42.171 478.600,41.778 479.235 M354.800 479.400 C 354.800 479.745,355.161 480.000,355.649 480.000 C 356.358 480.000,356.416 479.901,356.000 479.400 C 355.726 479.070,355.344 478.800,355.151 478.800 C 354.958 478.800,354.800 479.070,354.800 479.400 " stroke="none" fill="#fc9b4e" fill-rule="evenodd"></path></g></svg>
